M48
; DRILL file {KiCad 9.0.0} date 2025-05-06T13:02:52-0600
; FORMAT={-:-/ absolute / inch / decimal}
; #@! TF.CreationDate,2025-05-06T13:02:52-06:00
; #@! TF.GenerationSoftware,Kicad,Pcbnew,9.0.0
; #@! TF.FileFunction,Plated,1,2,PTH
FMAT,2
INCH
; #@! TA.AperFunction,Plated,PTH,ViaDrill
T1C0.0118
; #@! TA.AperFunction,Plated,PTH,ComponentDrill
T2C0.0374
; #@! TA.AperFunction,Plated,PTH,ComponentDrill
T3C0.0394
%
G90
G05
T1
X3.9469Y-3.8244
X3.998Y-4.1315
X4.0945Y-3.1693
X4.1142Y-2.9528
X4.3307Y-2.8543
X4.3307Y-2.9921
X4.3307Y-3.0709
X4.4094Y-2.6772
X4.4488Y-3.6024
X4.5909Y-2.9374
X4.626Y-3.7008
X4.6654Y-1.811
X4.7638Y-3.5039
X4.7835Y-3.2677
X4.7988Y-3.7008
X4.9016Y-3.5039
X4.9016Y-3.7008
X5.0039Y-4.2224
X5.0039Y-4.2618
X5.0168Y-3.7008
X5.1181Y-3.3858
X5.1181Y-3.7008
X5.1453Y-2.9949
X5.1996Y-2.8181
X5.2465Y-2.7783
X5.2563Y-2.3331
X5.2614Y-3.3618
X5.3236Y-3.4898
X5.3268Y-1.2228
X5.3272Y-1.2587
X5.3272Y-1.4354
X5.3272Y-1.4665
X5.3272Y-2.9815
X5.385Y-1.3969
X5.4016Y-2.3579
X5.4315Y-3.0421
X5.4457Y-1.9146
X5.5606Y-3.1465
X5.5673Y-1.4339
X5.5677Y-1.4626
X5.5681Y-1.224
X5.5681Y-1.2559
X5.6024Y-2.9165
X5.6059Y-3.0429
X5.689Y-3.7795
X5.713Y-2.7831
X5.7941Y-1.6252
X5.8059Y-2.3
X5.8065Y-1.9483
X5.8295Y-2.5024
X5.8415Y-1.9482
X5.8425Y-1.2829
X5.8437Y-3.0031
X5.8449Y-3.0933
X5.8465Y-2.126
X5.8496Y-3.3051
X5.8858Y-2.0866
X5.9083Y-2.8496
X5.9176Y-1.705
X5.9488Y-3.376
X5.9646Y-3.4252
X5.9843Y-1.6732
X5.9843Y-2.126
X6.0039Y-3.1102
X6.0236Y-2.0866
X6.0236Y-3.2677
X6.0583Y-1.2031
X6.0827Y-3.4252
X6.0866Y-3.376
X6.1535Y-1.5343
X6.1583Y-1.4268
X6.1654Y-2.8051
X6.2008Y-3.0906
X6.2047Y-2.8051
X6.2047Y-3.376
X6.2087Y-1.5335
X6.2155Y-3.4252
X6.3185Y-1.535
X6.3386Y-3.2874
X6.378Y-3.4252
X6.3819Y-3.4744
X6.4102Y-1.2028
X6.4409Y-1.9587
X6.4409Y-4.2224
X6.4409Y-4.2618
X6.4764Y-1.9291
X6.4961Y-2.5787
X6.5Y-2.3327
X6.5197Y-2.0374
X6.5394Y-2.3327
X6.5551Y-2.0079
X6.6181Y-4.0256
X6.7717Y-2.5787
X6.7756Y-2.0374
X6.7756Y-2.0768
X6.8248Y-3.9205
X6.8346Y-2.1161
X6.8405Y-2.0826
X6.85Y-3.5437
X6.8504Y-3.6575
X6.9165Y-4.1803
T2
X3.839Y-2.6087
X3.839Y-2.7071
X3.839Y-2.8055
X3.839Y-2.9039
X3.839Y-3.0024
X3.839Y-3.1008
X3.8866Y-1.8217
X3.8866Y-1.9201
X3.8866Y-2.0185
X3.8866Y-2.1169
X6.0043Y-1.9437
X6.1028Y-1.9437
X6.2012Y-1.9437
X6.2161Y-3.5461
X6.2161Y-3.6445
X6.2161Y-3.7429
X6.2161Y-3.8413
X6.2161Y-3.9398
X6.2996Y-1.9437
T3
X4.3996Y-3.9321
X4.498Y-3.9321
X4.5732Y-1.5764
X4.6732Y-1.5764
X4.7732Y-1.5764
X4.826Y-3.9331
X4.8732Y-1.5764
X4.9244Y-3.9331
X5.2937Y-4.0742
X5.3937Y-4.0742
X5.4937Y-4.0742
X5.5937Y-4.0742
X6.9474Y-2.4431
X6.9474Y-2.5431
X6.9474Y-2.6431
X6.9474Y-2.7431
X6.9474Y-2.8431
X6.9474Y-2.9431
X6.9474Y-3.0431
X6.9474Y-3.1431
X7.0276Y-1.3606
X7.0276Y-1.4606
X7.0276Y-1.5606
X7.0276Y-1.6606
X7.0276Y-1.7606
X7.0276Y-1.8606
X7.0276Y-1.9606
M30
