%TF.GenerationSoftware,KiCad,Pcbnew,9.0.0*%
%TF.CreationDate,2025-05-06T12:21:15-06:00*%
%TF.ProjectId,2025_04_STM32F103_RobotBrain,32303235-5f30-4345-9f53-544d33324631,rev?*%
%TF.SameCoordinates,Original*%
%TF.FileFunction,Copper,L2,Bot*%
%TF.FilePolarity,Positive*%
%FSLAX46Y46*%
G04 Gerber Fmt 4.6, Leading zero omitted, Abs format (unit mm)*
G04 Created by KiCad (PCBNEW 9.0.0) date 2025-05-06 12:21:15*
%MOMM*%
%LPD*%
G01*
G04 APERTURE LIST*
G04 Aperture macros list*
%AMRoundRect*
0 Rectangle with rounded corners*
0 $1 Rounding radius*
0 $2 $3 $4 $5 $6 $7 $8 $9 X,Y pos of 4 corners*
0 Add a 4 corners polygon primitive as box body*
4,1,4,$2,$3,$4,$5,$6,$7,$8,$9,$2,$3,0*
0 Add four circle primitives for the rounded corners*
1,1,$1+$1,$2,$3*
1,1,$1+$1,$4,$5*
1,1,$1+$1,$6,$7*
1,1,$1+$1,$8,$9*
0 Add four rect primitives between the rounded corners*
20,1,$1+$1,$2,$3,$4,$5,0*
20,1,$1+$1,$4,$5,$6,$7,0*
20,1,$1+$1,$6,$7,$8,$9,0*
20,1,$1+$1,$8,$9,$2,$3,0*%
G04 Aperture macros list end*
%TA.AperFunction,ComponentPad*%
%ADD10RoundRect,0.250000X-0.600000X-0.750000X0.600000X-0.750000X0.600000X0.750000X-0.600000X0.750000X0*%
%TD*%
%TA.AperFunction,ComponentPad*%
%ADD11O,1.700000X2.000000*%
%TD*%
%TA.AperFunction,ComponentPad*%
%ADD12R,1.700000X1.700000*%
%TD*%
%TA.AperFunction,ComponentPad*%
%ADD13O,1.700000X1.700000*%
%TD*%
%TA.AperFunction,ComponentPad*%
%ADD14RoundRect,0.250000X0.725000X-0.600000X0.725000X0.600000X-0.725000X0.600000X-0.725000X-0.600000X0*%
%TD*%
%TA.AperFunction,ComponentPad*%
%ADD15O,1.950000X1.700000*%
%TD*%
%TA.AperFunction,ComponentPad*%
%ADD16RoundRect,0.250000X-0.725000X0.600000X-0.725000X-0.600000X0.725000X-0.600000X0.725000X0.600000X0*%
%TD*%
%TA.AperFunction,ComponentPad*%
%ADD17RoundRect,0.250000X-0.600000X-0.725000X0.600000X-0.725000X0.600000X0.725000X-0.600000X0.725000X0*%
%TD*%
%TA.AperFunction,ComponentPad*%
%ADD18O,1.700000X1.950000*%
%TD*%
%TA.AperFunction,ViaPad*%
%ADD19C,0.600000*%
%TD*%
%TA.AperFunction,Conductor*%
%ADD20C,0.254000*%
%TD*%
%TA.AperFunction,Conductor*%
%ADD21C,0.381000*%
%TD*%
G04 APERTURE END LIST*
D10*
%TO.P,J6,1,Pin_1*%
%TO.N,+3V3*%
X122580000Y-99900000D03*
D11*
%TO.P,J6,2,Pin_2*%
%TO.N,GND*%
X125080000Y-99900000D03*
%TD*%
D12*
%TO.P,J9,1,Pin_1*%
%TO.N,+3V3*%
X178500000Y-49800000D03*
D13*
%TO.P,J9,2,Pin_2*%
%TO.N,/PS2_SCK*%
X178500000Y-47260000D03*
%TO.P,J9,3,Pin_3*%
%TO.N,unconnected-(J9-Pin_3-Pad3)*%
X178500000Y-44720000D03*
%TO.P,J9,4,Pin_4*%
%TO.N,/PS2_CS*%
X178500000Y-42180000D03*
%TO.P,J9,5,Pin_5*%
%TO.N,GND*%
X178500000Y-39640000D03*
%TO.P,J9,6,Pin_6*%
%TO.N,/PS2_MISO*%
X178500000Y-37100000D03*
%TO.P,J9,7,Pin_7*%
%TO.N,/PS2_MOSI*%
X178500000Y-34560000D03*
%TD*%
D14*
%TO.P,J8,1,Pin_1*%
%TO.N,/E2A*%
X157890000Y-100070000D03*
D15*
%TO.P,J8,2,Pin_2*%
%TO.N,/E2B*%
X157890000Y-97570000D03*
%TO.P,J8,3,Pin_3*%
%TO.N,/E1A*%
X157890000Y-95070000D03*
%TO.P,J8,4,Pin_4*%
%TO.N,/E1B*%
X157890000Y-92570000D03*
%TO.P,J8,5,Pin_5*%
%TO.N,/PWR_ADC*%
X157890000Y-90070000D03*
%TD*%
D12*
%TO.P,J2,1,Pin_1*%
%TO.N,+5V*%
X176465000Y-79835000D03*
D13*
%TO.P,J2,2,Pin_2*%
%TO.N,GND*%
X176465000Y-77295000D03*
%TO.P,J2,3,Pin_3*%
%TO.N,/IMU_I2C_SCL*%
X176465000Y-74755000D03*
%TO.P,J2,4,Pin_4*%
%TO.N,/IMU_I2C_SDA*%
X176465000Y-72215000D03*
%TO.P,J2,5,Pin_5*%
%TO.N,unconnected-(J2-Pin_5-Pad5)*%
X176465000Y-69675000D03*
%TO.P,J2,6,Pin_6*%
%TO.N,unconnected-(J2-Pin_6-Pad6)*%
X176465000Y-67135000D03*
%TO.P,J2,7,Pin_7*%
%TO.N,unconnected-(J2-Pin_7-Pad7)*%
X176465000Y-64595000D03*
%TO.P,J2,8,Pin_8*%
%TO.N,/IMU_INT*%
X176465000Y-62055000D03*
%TD*%
D12*
%TO.P,J4,1,Pin_1*%
%TO.N,+3V3*%
X116160000Y-40040000D03*
D13*
%TO.P,J4,2,Pin_2*%
%TO.N,/SWCLK*%
X118700000Y-40040000D03*
%TO.P,J4,3,Pin_3*%
%TO.N,GND*%
X121240000Y-40040000D03*
%TO.P,J4,4,Pin_4*%
%TO.N,/SWDIO*%
X123780000Y-40040000D03*
%TD*%
D16*
%TO.P,J11,1,Pin_1*%
%TO.N,+3V3*%
X98720000Y-46270000D03*
D15*
%TO.P,J11,2,Pin_2*%
%TO.N,/USER_TX*%
X98720000Y-48770000D03*
%TO.P,J11,3,Pin_3*%
%TO.N,/USER_RX*%
X98720000Y-51270000D03*
%TO.P,J11,4,Pin_4*%
%TO.N,GND*%
X98720000Y-53770000D03*
%TD*%
D12*
%TO.P,J3,1,Pin_1*%
%TO.N,+5V*%
X134460000Y-103485000D03*
D13*
%TO.P,J3,2,Pin_2*%
%TO.N,/ULTRA_TRIG*%
X137000000Y-103485000D03*
%TO.P,J3,3,Pin_3*%
%TO.N,/ULTRA_ECHO*%
X139540000Y-103485000D03*
%TO.P,J3,4,Pin_4*%
%TO.N,GND*%
X142080000Y-103485000D03*
%TD*%
D17*
%TO.P,J7,1,Pin_1*%
%TO.N,/AN2*%
X152510000Y-49370000D03*
D18*
%TO.P,J7,2,Pin_2*%
%TO.N,/AN1*%
X155010000Y-49370000D03*
%TO.P,J7,3,Pin_3*%
%TO.N,/BN2*%
X157510000Y-49370000D03*
%TO.P,J7,4,Pin_4*%
%TO.N,/BN1*%
X160010000Y-49370000D03*
%TD*%
D10*
%TO.P,J5,1,Pin_1*%
%TO.N,+5V*%
X111750000Y-99875000D03*
D11*
%TO.P,J5,2,Pin_2*%
%TO.N,GND*%
X114250000Y-99875000D03*
%TD*%
D14*
%TO.P,J10,1,Pin_1*%
%TO.N,+3V3*%
X97510000Y-78760000D03*
D15*
%TO.P,J10,2,Pin_2*%
%TO.N,/X1*%
X97510000Y-76260000D03*
%TO.P,J10,3,Pin_3*%
%TO.N,/X2*%
X97510000Y-73760000D03*
%TO.P,J10,4,Pin_4*%
%TO.N,/X3*%
X97510000Y-71260000D03*
%TO.P,J10,5,Pin_5*%
%TO.N,/X4*%
X97510000Y-68760000D03*
%TO.P,J10,6,Pin_6*%
%TO.N,GND*%
X97510000Y-66260000D03*
%TD*%
D19*
%TO.N,+3V3*%
X162000000Y-87000000D03*
X166500000Y-51000000D03*
X157873000Y-87000000D03*
X131000000Y-74000000D03*
X162000000Y-59000000D03*
X166500000Y-55500000D03*
X157500000Y-61500000D03*
X164500000Y-49000000D03*
X127500000Y-74000000D03*
X154500000Y-87000000D03*
X151500000Y-87000000D03*
%TO.N,GND*%
X135300000Y-31060000D03*
X135310000Y-31970000D03*
X138320000Y-48630000D03*
X101550000Y-104940000D03*
X136780000Y-35480000D03*
X137200000Y-59890000D03*
X135310000Y-36460000D03*
X100250000Y-97140000D03*
X148430000Y-76280000D03*
X133260000Y-70570000D03*
X160490000Y-38990000D03*
X156300000Y-38970000D03*
X135310000Y-75730000D03*
X141240000Y-79920000D03*
X116610000Y-74610000D03*
X162820000Y-30550000D03*
X150070000Y-72380000D03*
X174000000Y-92900000D03*
X132070000Y-71580000D03*
X133640000Y-85390000D03*
X141410000Y-36420000D03*
X145110000Y-70690000D03*
X173350000Y-99580000D03*
X153880000Y-30560000D03*
X148580000Y-83950000D03*
X135220000Y-88640000D03*
X141420000Y-37150000D03*
X141430000Y-31900000D03*
X141430000Y-31090000D03*
X157700000Y-38950000D03*
X175680000Y-106180000D03*
X148460000Y-78570000D03*
X137960000Y-77270000D03*
X148070000Y-63560000D03*
X148400000Y-32585000D03*
X156420000Y-36240000D03*
X130690000Y-76070000D03*
X133510000Y-59260000D03*
X142390000Y-77290000D03*
X173990000Y-90010000D03*
X142300000Y-74080000D03*
X147470000Y-58420000D03*
X135310000Y-37250000D03*
X147170000Y-41280000D03*
%TO.N,/IMU_INT*%
X165000000Y-65500000D03*
X172000000Y-65500000D03*
%TO.N,/BL_RX*%
X148373000Y-49484910D03*
X152000000Y-42500000D03*
%TO.N,/BL_TX*%
X147485599Y-49485599D03*
X150306644Y-43306644D03*
%TO.N,/ULTRA_TRIG*%
X152500000Y-79000000D03*
X153000000Y-83000000D03*
X144500000Y-96000000D03*
%TO.N,/ULTRA_ECHO*%
X161000000Y-83500000D03*
X157500000Y-78500000D03*
%TO.N,/SWCLK*%
X118500000Y-46000000D03*
%TO.N,/BN1*%
X148500000Y-54000000D03*
X152000000Y-54000000D03*
%TO.N,/BN2*%
X149500000Y-53000000D03*
X153000000Y-53000000D03*
%TO.N,/E2A*%
X124500000Y-94000000D03*
X127427000Y-94000000D03*
X104000000Y-80500000D03*
X130000000Y-94000000D03*
X104500000Y-75000000D03*
X117500000Y-94000000D03*
X113000000Y-91500000D03*
X121889500Y-94000000D03*
%TO.N,/E2B*%
X110000000Y-78000000D03*
X112000000Y-68000000D03*
X110000000Y-76000000D03*
X110000000Y-72500000D03*
X130000000Y-86000000D03*
X121500000Y-83000000D03*
%TO.N,Net-(LED1-DIN)*%
X124500000Y-89000000D03*
X121000000Y-89000000D03*
%TD*%
D20*
%TO.N,+3V3*%
X164500000Y-49000000D02*
X166500000Y-51000000D01*
X154500000Y-87000000D02*
X151500000Y-87000000D01*
X162000000Y-87000000D02*
X157873000Y-87000000D01*
X162000000Y-59000000D02*
X160000000Y-59000000D01*
X160000000Y-59000000D02*
X157500000Y-61500000D01*
X163000000Y-59000000D02*
X162000000Y-59000000D01*
X131000000Y-74000000D02*
X127500000Y-74000000D01*
X166500000Y-55500000D02*
X163000000Y-59000000D01*
%TO.N,/IMU_INT*%
X172000000Y-65500000D02*
X165000000Y-65500000D01*
%TO.N,/BL_RX*%
X152000000Y-42500000D02*
X148373000Y-46127000D01*
X148373000Y-46127000D02*
X148373000Y-49484910D01*
%TO.N,/BL_TX*%
X150306644Y-43306644D02*
X147485599Y-46127689D01*
X147485599Y-46127689D02*
X147485599Y-49485599D01*
%TO.N,/ULTRA_TRIG*%
X143985000Y-96500000D02*
X137000000Y-103485000D01*
X153000000Y-79500000D02*
X153000000Y-83000000D01*
X152500000Y-79000000D02*
X153000000Y-79500000D01*
X144500000Y-96000000D02*
X144000000Y-96500000D01*
X144000000Y-96500000D02*
X143985000Y-96500000D01*
%TO.N,/ULTRA_ECHO*%
X161000000Y-82000000D02*
X157500000Y-78500000D01*
X161000000Y-83500000D02*
X161000000Y-82000000D01*
%TO.N,/SWCLK*%
X118700000Y-45800000D02*
X118700000Y-40040000D01*
X118500000Y-46000000D02*
X118700000Y-45800000D01*
%TO.N,/BN1*%
X152000000Y-54000000D02*
X148500000Y-54000000D01*
%TO.N,/BN2*%
X153000000Y-53000000D02*
X149500000Y-53000000D01*
%TO.N,/E2A*%
X117500000Y-94000000D02*
X115500000Y-94000000D01*
X104000000Y-75500000D02*
X104500000Y-75000000D01*
X104000000Y-80500000D02*
X104000000Y-75500000D01*
X130000000Y-94000000D02*
X127427000Y-94000000D01*
X124500000Y-94000000D02*
X121889500Y-94000000D01*
X115500000Y-94000000D02*
X113000000Y-91500000D01*
%TO.N,/E2B*%
X110000000Y-70000000D02*
X112000000Y-68000000D01*
X110000000Y-72500000D02*
X110000000Y-70000000D01*
X130000000Y-86000000D02*
X127000000Y-83000000D01*
X110000000Y-78000000D02*
X110000000Y-76000000D01*
X127000000Y-83000000D02*
X121500000Y-83000000D01*
D21*
%TO.N,Net-(LED1-DIN)*%
X124500000Y-89000000D02*
X121000000Y-89000000D01*
%TD*%
%TA.AperFunction,Conductor*%
%TO.N,GND*%
G36*
X179103736Y-30250727D02*
G01*
X179393796Y-30268272D01*
X179408657Y-30270076D01*
X179690797Y-30321781D01*
X179705334Y-30325364D01*
X179979182Y-30410699D01*
X179993163Y-30416001D01*
X180254732Y-30533724D01*
X180267987Y-30540681D01*
X180513458Y-30689072D01*
X180525776Y-30697574D01*
X180751573Y-30874474D01*
X180762781Y-30884404D01*
X180965595Y-31087219D01*
X180975525Y-31098427D01*
X181152422Y-31324218D01*
X181160928Y-31336541D01*
X181309315Y-31582004D01*
X181316274Y-31595263D01*
X181433996Y-31856832D01*
X181439305Y-31870833D01*
X181524634Y-32144664D01*
X181528218Y-32159202D01*
X181579922Y-32441340D01*
X181581727Y-32456205D01*
X181589097Y-32578033D01*
X181595513Y-32684110D01*
X181599274Y-32746274D01*
X181599500Y-32753761D01*
X181599500Y-106746250D01*
X181599274Y-106753737D01*
X181581728Y-107043795D01*
X181579923Y-107058660D01*
X181528219Y-107340798D01*
X181524635Y-107355336D01*
X181439304Y-107629175D01*
X181433994Y-107643177D01*
X181316277Y-107904731D01*
X181309319Y-107917989D01*
X181160928Y-108163459D01*
X181152422Y-108175782D01*
X180975525Y-108401573D01*
X180965595Y-108412781D01*
X180762781Y-108615596D01*
X180751573Y-108625526D01*
X180525782Y-108802422D01*
X180513458Y-108810928D01*
X180267987Y-108959319D01*
X180254730Y-108966277D01*
X179993176Y-109083994D01*
X179979174Y-109089304D01*
X179705335Y-109174635D01*
X179690797Y-109178219D01*
X179408659Y-109229923D01*
X179393794Y-109231728D01*
X179200701Y-109243408D01*
X179103712Y-109249275D01*
X179096240Y-109249501D01*
X95103752Y-109249501D01*
X95096265Y-109249275D01*
X94806205Y-109231729D01*
X94791340Y-109229924D01*
X94509202Y-109178220D01*
X94494664Y-109174636D01*
X94220832Y-109089307D01*
X94206831Y-109083998D01*
X93945263Y-108966276D01*
X93932004Y-108959317D01*
X93686540Y-108810929D01*
X93674217Y-108802423D01*
X93448426Y-108625527D01*
X93437218Y-108615597D01*
X93234403Y-108412782D01*
X93224473Y-108401574D01*
X93224472Y-108401573D01*
X93047572Y-108175777D01*
X93039074Y-108163466D01*
X92890679Y-107917989D01*
X92883724Y-107904737D01*
X92766001Y-107643168D01*
X92760692Y-107629167D01*
X92752095Y-107601579D01*
X92675362Y-107355335D01*
X92671779Y-107340798D01*
X92620075Y-107058660D01*
X92618270Y-107043795D01*
X92600726Y-106753752D01*
X92600500Y-106746265D01*
X92600500Y-102587135D01*
X133109500Y-102587135D01*
X133109500Y-104382870D01*
X133109501Y-104382876D01*
X133115908Y-104442483D01*
X133166202Y-104577328D01*
X133166206Y-104577335D01*
X133252452Y-104692544D01*
X133252455Y-104692547D01*
X133367664Y-104778793D01*
X133367671Y-104778797D01*
X133502517Y-104829091D01*
X133502516Y-104829091D01*
X133509444Y-104829835D01*
X133562127Y-104835500D01*
X135357872Y-104835499D01*
X135417483Y-104829091D01*
X135552331Y-104778796D01*
X135667546Y-104692546D01*
X135753796Y-104577331D01*
X135802810Y-104445916D01*
X135844681Y-104389984D01*
X135910145Y-104365566D01*
X135978418Y-104380417D01*
X136006673Y-104401569D01*
X136120213Y-104515109D01*
X136292179Y-104640048D01*
X136292181Y-104640049D01*
X136292184Y-104640051D01*
X136481588Y-104736557D01*
X136683757Y-104802246D01*
X136893713Y-104835500D01*
X136893714Y-104835500D01*
X137106286Y-104835500D01*
X137106287Y-104835500D01*
X137316243Y-104802246D01*
X137518412Y-104736557D01*
X137707816Y-104640051D01*
X137794138Y-104577335D01*
X137879786Y-104515109D01*
X137879788Y-104515106D01*
X137879792Y-104515104D01*
X138030104Y-104364792D01*
X138030106Y-104364788D01*
X138030109Y-104364786D01*
X138155048Y-104192820D01*
X138155047Y-104192820D01*
X138155051Y-104192816D01*
X138159514Y-104184054D01*
X138207488Y-104133259D01*
X138275308Y-104116463D01*
X138341444Y-104138999D01*
X138380486Y-104184056D01*
X138384951Y-104192820D01*
X138509890Y-104364786D01*
X138660213Y-104515109D01*
X138832179Y-104640048D01*
X138832181Y-104640049D01*
X138832184Y-104640051D01*
X139021588Y-104736557D01*
X139223757Y-104802246D01*
X139433713Y-104835500D01*
X139433714Y-104835500D01*
X139646286Y-104835500D01*
X139646287Y-104835500D01*
X139856243Y-104802246D01*
X140058412Y-104736557D01*
X140247816Y-104640051D01*
X140334138Y-104577335D01*
X140419786Y-104515109D01*
X140419788Y-104515106D01*
X140419792Y-104515104D01*
X140570104Y-104364792D01*
X140570106Y-104364788D01*
X140570109Y-104364786D01*
X140695048Y-104192820D01*
X140695051Y-104192816D01*
X140699793Y-104183508D01*
X140747763Y-104132711D01*
X140815583Y-104115911D01*
X140881719Y-104138445D01*
X140920763Y-104183500D01*
X140925377Y-104192555D01*
X141050272Y-104364459D01*
X141050276Y-104364464D01*
X141200535Y-104514723D01*
X141200540Y-104514727D01*
X141372442Y-104639620D01*
X141561782Y-104736095D01*
X141763871Y-104801757D01*
X141830000Y-104812231D01*
X141830000Y-103918012D01*
X141887007Y-103950925D01*
X142014174Y-103985000D01*
X142145826Y-103985000D01*
X142272993Y-103950925D01*
X142330000Y-103918012D01*
X142330000Y-104812230D01*
X142396126Y-104801757D01*
X142396129Y-104801757D01*
X142598217Y-104736095D01*
X142787557Y-104639620D01*
X142959459Y-104514727D01*
X142959464Y-104514723D01*
X143109723Y-104364464D01*
X143109727Y-104364459D01*
X143234620Y-104192557D01*
X143331095Y-104003217D01*
X143396757Y-103801129D01*
X143396757Y-103801126D01*
X143407231Y-103735000D01*
X142513012Y-103735000D01*
X142545925Y-103677993D01*
X142580000Y-103550826D01*
X142580000Y-103419174D01*
X142545925Y-103292007D01*
X142513012Y-103235000D01*
X143407231Y-103235000D01*
X143396757Y-103168873D01*
X143396757Y-103168870D01*
X143331095Y-102966782D01*
X143234620Y-102777442D01*
X143109727Y-102605540D01*
X143109723Y-102605535D01*
X142959464Y-102455276D01*
X142959459Y-102455272D01*
X142787557Y-102330379D01*
X142598215Y-102233903D01*
X142396124Y-102168241D01*
X142330000Y-102157768D01*
X142330000Y-103051988D01*
X142272993Y-103019075D01*
X142145826Y-102985000D01*
X142014174Y-102985000D01*
X141887007Y-103019075D01*
X141830000Y-103051988D01*
X141830000Y-102157768D01*
X141829999Y-102157768D01*
X141763875Y-102168241D01*
X141561784Y-102233903D01*
X141372442Y-102330379D01*
X141200540Y-102455272D01*
X141200535Y-102455276D01*
X141050276Y-102605535D01*
X141050272Y-102605540D01*
X140925378Y-102777443D01*
X140920762Y-102786502D01*
X140872784Y-102837295D01*
X140804963Y-102854087D01*
X140738829Y-102831546D01*
X140699794Y-102786493D01*
X140695051Y-102777184D01*
X140695049Y-102777181D01*
X140695048Y-102777179D01*
X140570109Y-102605213D01*
X140419786Y-102454890D01*
X140247820Y-102329951D01*
X140058414Y-102233444D01*
X140058413Y-102233443D01*
X140058412Y-102233443D01*
X139856243Y-102167754D01*
X139856241Y-102167753D01*
X139856240Y-102167753D01*
X139692863Y-102141877D01*
X139646287Y-102134500D01*
X139537280Y-102134500D01*
X139470241Y-102114815D01*
X139424486Y-102062011D01*
X139414542Y-101992853D01*
X139443567Y-101929297D01*
X139449599Y-101922819D01*
X141897517Y-99474901D01*
X144346170Y-97026247D01*
X144364951Y-97010834D01*
X144400008Y-96987411D01*
X144487411Y-96900008D01*
X144562328Y-96825089D01*
X144623649Y-96791606D01*
X144625668Y-96791185D01*
X144733497Y-96769737D01*
X144879179Y-96709394D01*
X145010289Y-96621789D01*
X145121789Y-96510289D01*
X145209394Y-96379179D01*
X145269737Y-96233497D01*
X145300500Y-96078842D01*
X145300500Y-95921158D01*
X145300500Y-95921155D01*
X145300499Y-95921153D01*
X145291156Y-95874183D01*
X145269737Y-95766503D01*
X145245758Y-95708612D01*
X145209397Y-95620827D01*
X145209390Y-95620814D01*
X145121789Y-95489711D01*
X145121786Y-95489707D01*
X145010292Y-95378213D01*
X145010288Y-95378210D01*
X144879185Y-95290609D01*
X144879172Y-95290602D01*
X144733501Y-95230264D01*
X144733489Y-95230261D01*
X144578845Y-95199500D01*
X144578842Y-95199500D01*
X144421158Y-95199500D01*
X144421155Y-95199500D01*
X144266510Y-95230261D01*
X144266498Y-95230264D01*
X144120827Y-95290602D01*
X144120814Y-95290609D01*
X143989711Y-95378210D01*
X143989707Y-95378213D01*
X143878213Y-95489707D01*
X143878210Y-95489711D01*
X143790609Y-95620814D01*
X143790602Y-95620827D01*
X143730264Y-95766498D01*
X143730261Y-95766508D01*
X143708843Y-95874183D01*
X143700077Y-95890939D01*
X143696058Y-95909418D01*
X143677315Y-95934454D01*
X143676458Y-95936094D01*
X143674907Y-95937672D01*
X143638831Y-95973748D01*
X143620045Y-95989166D01*
X143603087Y-96000498D01*
X143603082Y-96000502D01*
X143584989Y-96012590D01*
X137455702Y-102141877D01*
X137394379Y-102175362D01*
X137329707Y-102172128D01*
X137316245Y-102167754D01*
X137316240Y-102167753D01*
X137152863Y-102141877D01*
X137106287Y-102134500D01*
X136893713Y-102134500D01*
X136847137Y-102141877D01*
X136683760Y-102167753D01*
X136481585Y-102233444D01*
X136292179Y-102329951D01*
X136120215Y-102454889D01*
X136006673Y-102568431D01*
X135945350Y-102601915D01*
X135875658Y-102596931D01*
X135819725Y-102555059D01*
X135802810Y-102524082D01*
X135753797Y-102392671D01*
X135753793Y-102392664D01*
X135667547Y-102277455D01*
X135667544Y-102277452D01*
X135552335Y-102191206D01*
X135552328Y-102191202D01*
X135417482Y-102140908D01*
X135417483Y-102140908D01*
X135357883Y-102134501D01*
X135357881Y-102134500D01*
X135357873Y-102134500D01*
X135357864Y-102134500D01*
X133562129Y-102134500D01*
X133562123Y-102134501D01*
X133502516Y-102140908D01*
X133367671Y-102191202D01*
X133367664Y-102191206D01*
X133252455Y-102277452D01*
X133252452Y-102277455D01*
X133166206Y-102392664D01*
X133166202Y-102392671D01*
X133115908Y-102527517D01*
X133109501Y-102587116D01*
X133109500Y-102587135D01*
X92600500Y-102587135D01*
X92600500Y-99074983D01*
X110399500Y-99074983D01*
X110399500Y-100675001D01*
X110399501Y-100675018D01*
X110410000Y-100777796D01*
X110410001Y-100777799D01*
X110465185Y-100944331D01*
X110465186Y-100944334D01*
X110557288Y-101093656D01*
X110681344Y-101217712D01*
X110830666Y-101309814D01*
X110997203Y-101364999D01*
X111099991Y-101375500D01*
X112400008Y-101375499D01*
X112502797Y-101364999D01*
X112669334Y-101309814D01*
X112818656Y-101217712D01*
X112942712Y-101093656D01*
X113034814Y-100944334D01*
X113034814Y-100944331D01*
X113038448Y-100938441D01*
X113090395Y-100891716D01*
X113159358Y-100880493D01*
X113223440Y-100908336D01*
X113231668Y-100915856D01*
X113370535Y-101054723D01*
X113370540Y-101054727D01*
X113542442Y-101179620D01*
X113731782Y-101276095D01*
X113933871Y-101341757D01*
X114000000Y-101352231D01*
X114000000Y-100308012D01*
X114057007Y-100340925D01*
X114184174Y-100375000D01*
X114315826Y-100375000D01*
X114442993Y-100340925D01*
X114500000Y-100308012D01*
X114500000Y-101352230D01*
X114566126Y-101341757D01*
X114566129Y-101341757D01*
X114768217Y-101276095D01*
X114957557Y-101179620D01*
X115129459Y-101054727D01*
X115129464Y-101054723D01*
X115279723Y-100904464D01*
X115279727Y-100904459D01*
X115404620Y-100732557D01*
X115501095Y-100543217D01*
X115566757Y-100341130D01*
X115566757Y-100341127D01*
X115600000Y-100131246D01*
X115600000Y-100125000D01*
X114683012Y-100125000D01*
X114715925Y-100067993D01*
X114750000Y-99940826D01*
X114750000Y-99809174D01*
X114715925Y-99682007D01*
X114683012Y-99625000D01*
X115600000Y-99625000D01*
X115600000Y-99618753D01*
X115566757Y-99408872D01*
X115566757Y-99408869D01*
X115501094Y-99206780D01*
X115473758Y-99153130D01*
X115473757Y-99153129D01*
X115446677Y-99099983D01*
X121229500Y-99099983D01*
X121229500Y-100700001D01*
X121229501Y-100700018D01*
X121240000Y-100802796D01*
X121240001Y-100802799D01*
X121273690Y-100904464D01*
X121295186Y-100969334D01*
X121387288Y-101118656D01*
X121511344Y-101242712D01*
X121660666Y-101334814D01*
X121827203Y-101389999D01*
X121929991Y-101400500D01*
X123230008Y-101400499D01*
X123332797Y-101389999D01*
X123499334Y-101334814D01*
X123648656Y-101242712D01*
X123772712Y-101118656D01*
X123864814Y-100969334D01*
X123864814Y-100969331D01*
X123868448Y-100963441D01*
X123920395Y-100916716D01*
X123989358Y-100905493D01*
X124053440Y-100933336D01*
X124061668Y-100940856D01*
X124200535Y-101079723D01*
X124200540Y-101079727D01*
X124372442Y-101204620D01*
X124561782Y-101301095D01*
X124763871Y-101366757D01*
X124830000Y-101377231D01*
X124830000Y-100333012D01*
X124887007Y-100365925D01*
X125014174Y-100400000D01*
X125145826Y-100400000D01*
X125272993Y-100365925D01*
X125330000Y-100333012D01*
X125330000Y-101377230D01*
X125396126Y-101366757D01*
X125396129Y-101366757D01*
X125598217Y-101301095D01*
X125787557Y-101204620D01*
X125959459Y-101079727D01*
X125959464Y-101079723D01*
X126109723Y-100929464D01*
X126109727Y-100929459D01*
X126234620Y-100757557D01*
X126331095Y-100568217D01*
X126396757Y-100366130D01*
X126396757Y-100366127D01*
X126430000Y-100156246D01*
X126430000Y-100150000D01*
X125513012Y-100150000D01*
X125545925Y-100092993D01*
X125580000Y-99965826D01*
X125580000Y-99834174D01*
X125545925Y-99707007D01*
X125513012Y-99650000D01*
X126430000Y-99650000D01*
X126430000Y-99643753D01*
X126396757Y-99433872D01*
X126396757Y-99433869D01*
X126331095Y-99231782D01*
X126234620Y-99042442D01*
X126109727Y-98870540D01*
X126109723Y-98870535D01*
X125959464Y-98720276D01*
X125959459Y-98720272D01*
X125787557Y-98595379D01*
X125598215Y-98498903D01*
X125396124Y-98433241D01*
X125330000Y-98422768D01*
X125330000Y-99466988D01*
X125272993Y-99434075D01*
X125145826Y-99400000D01*
X125014174Y-99400000D01*
X124887007Y-99434075D01*
X124830000Y-99466988D01*
X124830000Y-98422768D01*
X124829999Y-98422768D01*
X124763875Y-98433241D01*
X124561784Y-98498903D01*
X124372442Y-98595379D01*
X124200541Y-98720271D01*
X124061668Y-98859144D01*
X124000345Y-98892628D01*
X123930653Y-98887644D01*
X123874720Y-98845772D01*
X123868448Y-98836558D01*
X123799670Y-98725051D01*
X123772712Y-98681344D01*
X123648656Y-98557288D01*
X123499334Y-98465186D01*
X123332797Y-98410001D01*
X123332795Y-98410000D01*
X123230010Y-98399500D01*
X121929998Y-98399500D01*
X121929981Y-98399501D01*
X121827203Y-98410000D01*
X121827200Y-98410001D01*
X121660668Y-98465185D01*
X121660663Y-98465187D01*
X121511342Y-98557289D01*
X121387289Y-98681342D01*
X121295187Y-98830663D01*
X121295185Y-98830668D01*
X121276305Y-98887644D01*
X121240001Y-98997203D01*
X121240001Y-98997204D01*
X121240000Y-98997204D01*
X121229500Y-99099983D01*
X115446677Y-99099983D01*
X115404620Y-99017442D01*
X115279727Y-98845540D01*
X115279723Y-98845535D01*
X115129464Y-98695276D01*
X115129459Y-98695272D01*
X114957557Y-98570379D01*
X114768215Y-98473903D01*
X114566124Y-98408241D01*
X114500000Y-98397768D01*
X114500000Y-99441988D01*
X114442993Y-99409075D01*
X114315826Y-99375000D01*
X114184174Y-99375000D01*
X114057007Y-99409075D01*
X114000000Y-99441988D01*
X114000000Y-98397768D01*
X113999999Y-98397768D01*
X113933875Y-98408241D01*
X113731784Y-98473903D01*
X113542442Y-98570379D01*
X113370541Y-98695271D01*
X113231668Y-98834144D01*
X113170345Y-98867628D01*
X113100653Y-98862644D01*
X113044720Y-98820772D01*
X113038448Y-98811558D01*
X112985272Y-98725346D01*
X112942712Y-98656344D01*
X112818656Y-98532288D01*
X112669334Y-98440186D01*
X112502797Y-98385001D01*
X112502795Y-98385000D01*
X112400010Y-98374500D01*
X111099998Y-98374500D01*
X111099981Y-98374501D01*
X110997203Y-98385000D01*
X110997200Y-98385001D01*
X110830668Y-98440185D01*
X110830663Y-98440187D01*
X110681342Y-98532289D01*
X110557289Y-98656342D01*
X110465187Y-98805663D01*
X110465185Y-98805668D01*
X110443689Y-98870540D01*
X110410001Y-98972203D01*
X110410001Y-98972204D01*
X110410000Y-98972204D01*
X110399500Y-99074983D01*
X92600500Y-99074983D01*
X92600500Y-94135259D01*
X106349500Y-94135259D01*
X106349500Y-94364742D01*
X106365651Y-94487411D01*
X106379452Y-94592239D01*
X106394175Y-94647185D01*
X106438842Y-94813888D01*
X106526650Y-95025877D01*
X106526656Y-95025889D01*
X106613487Y-95176286D01*
X106641392Y-95224618D01*
X106781081Y-95406662D01*
X106781089Y-95406671D01*
X106943330Y-95568912D01*
X106943338Y-95568919D01*
X107125382Y-95708608D01*
X107125385Y-95708609D01*
X107125388Y-95708612D01*
X107324112Y-95823345D01*
X107324117Y-95823347D01*
X107324123Y-95823350D01*
X107415480Y-95861191D01*
X107536113Y-95911159D01*
X107757762Y-95970549D01*
X107985266Y-96000501D01*
X107985273Y-96000501D01*
X108214727Y-96000501D01*
X108214734Y-96000501D01*
X108442238Y-95970549D01*
X108663887Y-95911159D01*
X108875888Y-95823345D01*
X109074612Y-95708612D01*
X109256661Y-95568920D01*
X109256665Y-95568915D01*
X109256670Y-95568912D01*
X109418911Y-95406671D01*
X109418914Y-95406666D01*
X109418919Y-95406662D01*
X109558611Y-95224613D01*
X109673344Y-95025889D01*
X109761158Y-94813888D01*
X109820548Y-94592239D01*
X109850500Y-94364735D01*
X109850500Y-94135267D01*
X109820548Y-93907763D01*
X109761158Y-93686114D01*
X109697642Y-93532774D01*
X109673349Y-93474124D01*
X109673346Y-93474118D01*
X109673344Y-93474113D01*
X109558611Y-93275389D01*
X109558608Y-93275386D01*
X109558607Y-93275383D01*
X109418918Y-93093339D01*
X109418911Y-93093331D01*
X109256670Y-92931090D01*
X109256661Y-92931082D01*
X109074617Y-92791393D01*
X108875890Y-92676658D01*
X108875876Y-92676651D01*
X108663887Y-92588843D01*
X108442238Y-92529453D01*
X108404215Y-92524447D01*
X108214741Y-92499501D01*
X108214734Y-92499501D01*
X107985266Y-92499501D01*
X107985258Y-92499501D01*
X107768715Y-92528010D01*
X107757762Y-92529453D01*
X107664076Y-92554555D01*
X107536112Y-92588843D01*
X107324123Y-92676651D01*
X107324109Y-92676658D01*
X107125382Y-92791393D01*
X106943338Y-92931082D01*
X106781081Y-93093339D01*
X106641392Y-93275383D01*
X106526657Y-93474110D01*
X106526650Y-93474124D01*
X106438842Y-93686113D01*
X106379453Y-93907760D01*
X106379451Y-93907771D01*
X106349500Y-94135259D01*
X92600500Y-94135259D01*
X92600500Y-91421153D01*
X112199500Y-91421153D01*
X112199500Y-91578846D01*
X112230261Y-91733489D01*
X112230264Y-91733501D01*
X112290602Y-91879172D01*
X112290609Y-91879185D01*
X112378210Y-92010288D01*
X112378213Y-92010292D01*
X112489707Y-92121786D01*
X112489711Y-92121789D01*
X112620814Y-92209390D01*
X112620827Y-92209397D01*
X112688961Y-92237618D01*
X112766503Y-92269737D01*
X112874185Y-92291156D01*
X112936092Y-92323539D01*
X112937672Y-92325091D01*
X115012589Y-94400008D01*
X115080150Y-94467569D01*
X115099994Y-94487413D01*
X115099997Y-94487414D01*
X115202767Y-94556083D01*
X115236215Y-94569937D01*
X115316965Y-94603386D01*
X115409470Y-94621786D01*
X115438192Y-94627499D01*
X115438196Y-94627500D01*
X115438197Y-94627500D01*
X115561803Y-94627500D01*
X116960643Y-94627500D01*
X117027682Y-94647185D01*
X117029534Y-94648398D01*
X117120814Y-94709390D01*
X117120827Y-94709397D01*
X117266498Y-94769735D01*
X117266503Y-94769737D01*
X117421153Y-94800499D01*
X117421156Y-94800500D01*
X117421158Y-94800500D01*
X117578844Y-94800500D01*
X117578845Y-94800499D01*
X117733497Y-94769737D01*
X117879179Y-94709394D01*
X118010289Y-94621789D01*
X118121789Y-94510289D01*
X118209394Y-94379179D01*
X118269737Y-94233497D01*
X118300500Y-94078842D01*
X118300500Y-93921158D01*
X118300500Y-93921155D01*
X118300499Y-93921153D01*
X121089000Y-93921153D01*
X121089000Y-94078846D01*
X121119761Y-94233489D01*
X121119764Y-94233501D01*
X121180102Y-94379172D01*
X121180109Y-94379185D01*
X121267710Y-94510288D01*
X121267713Y-94510292D01*
X121379207Y-94621786D01*
X121379211Y-94621789D01*
X121510314Y-94709390D01*
X121510327Y-94709397D01*
X121655998Y-94769735D01*
X121656003Y-94769737D01*
X121810653Y-94800499D01*
X121810656Y-94800500D01*
X121810658Y-94800500D01*
X121968344Y-94800500D01*
X121968345Y-94800499D01*
X122122997Y-94769737D01*
X122268679Y-94709394D01*
X122359966Y-94648398D01*
X122426643Y-94627520D01*
X122428857Y-94627500D01*
X123960643Y-94627500D01*
X124027682Y-94647185D01*
X124029534Y-94648398D01*
X124120814Y-94709390D01*
X124120827Y-94709397D01*
X124266498Y-94769735D01*
X124266503Y-94769737D01*
X124421153Y-94800499D01*
X124421156Y-94800500D01*
X124421158Y-94800500D01*
X124578844Y-94800500D01*
X124578845Y-94800499D01*
X124733497Y-94769737D01*
X124879179Y-94709394D01*
X125010289Y-94621789D01*
X125121789Y-94510289D01*
X125209394Y-94379179D01*
X125269737Y-94233497D01*
X125300500Y-94078842D01*
X125300500Y-93921158D01*
X125300500Y-93921155D01*
X125300499Y-93921153D01*
X126626500Y-93921153D01*
X126626500Y-94078846D01*
X126657261Y-94233489D01*
X126657264Y-94233501D01*
X126717602Y-94379172D01*
X126717609Y-94379185D01*
X126805210Y-94510288D01*
X126805213Y-94510292D01*
X126916707Y-94621786D01*
X126916711Y-94621789D01*
X127047814Y-94709390D01*
X127047827Y-94709397D01*
X127193498Y-94769735D01*
X127193503Y-94769737D01*
X127348153Y-94800499D01*
X127348156Y-94800500D01*
X127348158Y-94800500D01*
X127505844Y-94800500D01*
X127505845Y-94800499D01*
X127660497Y-94769737D01*
X127806179Y-94709394D01*
X127897466Y-94648398D01*
X127964143Y-94627520D01*
X127966357Y-94627500D01*
X129460643Y-94627500D01*
X129527682Y-94647185D01*
X129529534Y-94648398D01*
X129620814Y-94709390D01*
X129620827Y-94709397D01*
X129766498Y-94769735D01*
X129766503Y-94769737D01*
X129921153Y-94800499D01*
X129921156Y-94800500D01*
X129921158Y-94800500D01*
X130078844Y-94800500D01*
X130078845Y-94800499D01*
X130233497Y-94769737D01*
X130379179Y-94709394D01*
X130510289Y-94621789D01*
X130621789Y-94510289D01*
X130709394Y-94379179D01*
X130769737Y-94233497D01*
X130800500Y-94078842D01*
X130800500Y-93921158D01*
X130800500Y-93921155D01*
X130800499Y-93921153D01*
X130789327Y-93864989D01*
X130769737Y-93766503D01*
X130736439Y-93686113D01*
X130709397Y-93620827D01*
X130709390Y-93620814D01*
X130621789Y-93489711D01*
X130621786Y-93489707D01*
X130510292Y-93378213D01*
X130510288Y-93378210D01*
X130379185Y-93290609D01*
X130379172Y-93290602D01*
X130233501Y-93230264D01*
X130233489Y-93230261D01*
X130078845Y-93199500D01*
X130078842Y-93199500D01*
X129921158Y-93199500D01*
X129921155Y-93199500D01*
X129766510Y-93230261D01*
X129766498Y-93230264D01*
X129620827Y-93290602D01*
X129620814Y-93290609D01*
X129529534Y-93351602D01*
X129462857Y-93372480D01*
X129460643Y-93372500D01*
X127966357Y-93372500D01*
X127899318Y-93352815D01*
X127897466Y-93351602D01*
X127806185Y-93290609D01*
X127806172Y-93290602D01*
X127660501Y-93230264D01*
X127660489Y-93230261D01*
X127505845Y-93199500D01*
X127505842Y-93199500D01*
X127348158Y-93199500D01*
X127348155Y-93199500D01*
X127193510Y-93230261D01*
X127193498Y-93230264D01*
X127047827Y-93290602D01*
X127047814Y-93290609D01*
X126916711Y-93378210D01*
X126916707Y-93378213D01*
X126805213Y-93489707D01*
X126805210Y-93489711D01*
X126717609Y-93620814D01*
X126717602Y-93620827D01*
X126657264Y-93766498D01*
X126657261Y-93766510D01*
X126626500Y-93921153D01*
X125300499Y-93921153D01*
X125289327Y-93864989D01*
X125269737Y-93766503D01*
X125236439Y-93686113D01*
X125209397Y-93620827D01*
X125209390Y-93620814D01*
X125121789Y-93489711D01*
X125121786Y-93489707D01*
X125010292Y-93378213D01*
X125010288Y-93378210D01*
X124879185Y-93290609D01*
X124879172Y-93290602D01*
X124733501Y-93230264D01*
X124733489Y-93230261D01*
X124578845Y-93199500D01*
X124578842Y-93199500D01*
X124421158Y-93199500D01*
X124421155Y-93199500D01*
X124266510Y-93230261D01*
X124266498Y-93230264D01*
X124120827Y-93290602D01*
X124120814Y-93290609D01*
X124029534Y-93351602D01*
X123962857Y-93372480D01*
X123960643Y-93372500D01*
X122428857Y-93372500D01*
X122361818Y-93352815D01*
X122359966Y-93351602D01*
X122268685Y-93290609D01*
X122268672Y-93290602D01*
X122123001Y-93230264D01*
X122122989Y-93230261D01*
X121968345Y-93199500D01*
X121968342Y-93199500D01*
X121810658Y-93199500D01*
X121810655Y-93199500D01*
X121656010Y-93230261D01*
X121655998Y-93230264D01*
X121510327Y-93290602D01*
X121510314Y-93290609D01*
X121379211Y-93378210D01*
X121379207Y-93378213D01*
X121267713Y-93489707D01*
X121267710Y-93489711D01*
X121180109Y-93620814D01*
X121180102Y-93620827D01*
X121119764Y-93766498D01*
X121119761Y-93766510D01*
X121089000Y-93921153D01*
X118300499Y-93921153D01*
X118289327Y-93864989D01*
X118269737Y-93766503D01*
X118236439Y-93686113D01*
X118209397Y-93620827D01*
X118209390Y-93620814D01*
X118121789Y-93489711D01*
X118121786Y-93489707D01*
X118010292Y-93378213D01*
X118010288Y-93378210D01*
X117879185Y-93290609D01*
X117879172Y-93290602D01*
X117733501Y-93230264D01*
X117733489Y-93230261D01*
X117578845Y-93199500D01*
X117578842Y-93199500D01*
X117421158Y-93199500D01*
X117421155Y-93199500D01*
X117266510Y-93230261D01*
X117266498Y-93230264D01*
X117120827Y-93290602D01*
X117120814Y-93290609D01*
X117029534Y-93351602D01*
X116962857Y-93372480D01*
X116960643Y-93372500D01*
X115811281Y-93372500D01*
X115744242Y-93352815D01*
X115723600Y-93336181D01*
X113825091Y-91437672D01*
X113791606Y-91376349D01*
X113791183Y-91374323D01*
X113769737Y-91266503D01*
X113750343Y-91219681D01*
X113709397Y-91120827D01*
X113709390Y-91120814D01*
X113621789Y-90989711D01*
X113621786Y-90989707D01*
X113510292Y-90878213D01*
X113510288Y-90878210D01*
X113379185Y-90790609D01*
X113379172Y-90790602D01*
X113233501Y-90730264D01*
X113233489Y-90730261D01*
X113078845Y-90699500D01*
X113078842Y-90699500D01*
X112921158Y-90699500D01*
X112921155Y-90699500D01*
X112766510Y-90730261D01*
X112766498Y-90730264D01*
X112620827Y-90790602D01*
X112620814Y-90790609D01*
X112489711Y-90878210D01*
X112489707Y-90878213D01*
X112378213Y-90989707D01*
X112378210Y-90989711D01*
X112290609Y-91120814D01*
X112290602Y-91120827D01*
X112230264Y-91266498D01*
X112230261Y-91266510D01*
X112199500Y-91421153D01*
X92600500Y-91421153D01*
X92600500Y-89963713D01*
X156414500Y-89963713D01*
X156414500Y-90176286D01*
X156447753Y-90386239D01*
X156513444Y-90588414D01*
X156609951Y-90777820D01*
X156734890Y-90949786D01*
X156885209Y-91100105D01*
X156885214Y-91100109D01*
X157049793Y-91219682D01*
X157092459Y-91275011D01*
X157098438Y-91344625D01*
X157065833Y-91406420D01*
X157049793Y-91420318D01*
X156885214Y-91539890D01*
X156885209Y-91539894D01*
X156734890Y-91690213D01*
X156609951Y-91862179D01*
X156513444Y-92051585D01*
X156447753Y-92253760D01*
X156414500Y-92463713D01*
X156414500Y-92676286D01*
X156447753Y-92886239D01*
X156513444Y-93088414D01*
X156609951Y-93277820D01*
X156734890Y-93449786D01*
X156885209Y-93600105D01*
X156885214Y-93600109D01*
X157049793Y-93719682D01*
X157092459Y-93775011D01*
X157098438Y-93844625D01*
X157065833Y-93906420D01*
X157049793Y-93920318D01*
X156885214Y-94039890D01*
X156885209Y-94039894D01*
X156734890Y-94190213D01*
X156609951Y-94362179D01*
X156513444Y-94551585D01*
X156513443Y-94551587D01*
X156513443Y-94551588D01*
X156507481Y-94569936D01*
X156447753Y-94753760D01*
X156414500Y-94963713D01*
X156414500Y-95176286D01*
X156446481Y-95378210D01*
X156447754Y-95386243D01*
X156507109Y-95568919D01*
X156513444Y-95588414D01*
X156609951Y-95777820D01*
X156734890Y-95949786D01*
X156885209Y-96100105D01*
X156885214Y-96100109D01*
X157049793Y-96219682D01*
X157092459Y-96275011D01*
X157098438Y-96344625D01*
X157065833Y-96406420D01*
X157049793Y-96420318D01*
X156885214Y-96539890D01*
X156885209Y-96539894D01*
X156734890Y-96690213D01*
X156609951Y-96862179D01*
X156513444Y-97051585D01*
X156447753Y-97253760D01*
X156414500Y-97463713D01*
X156414500Y-97676286D01*
X156447753Y-97886239D01*
X156513444Y-98088414D01*
X156609951Y-98277820D01*
X156734890Y-98449786D01*
X156873705Y-98588601D01*
X156907190Y-98649924D01*
X156902206Y-98719616D01*
X156860334Y-98775549D01*
X156851121Y-98781821D01*
X156696342Y-98877289D01*
X156572289Y-99001342D01*
X156480187Y-99150663D01*
X156480185Y-99150668D01*
X156461592Y-99206780D01*
X156425001Y-99317203D01*
X156425001Y-99317204D01*
X156425000Y-99317204D01*
X156414500Y-99419983D01*
X156414500Y-100720001D01*
X156414501Y-100720018D01*
X156425000Y-100822796D01*
X156425001Y-100822799D01*
X156464122Y-100940856D01*
X156480186Y-100989334D01*
X156572288Y-101138656D01*
X156696344Y-101262712D01*
X156845666Y-101354814D01*
X157012203Y-101409999D01*
X157114991Y-101420500D01*
X158665008Y-101420499D01*
X158767797Y-101409999D01*
X158934334Y-101354814D01*
X159083656Y-101262712D01*
X159207712Y-101138656D01*
X159299814Y-100989334D01*
X159354999Y-100822797D01*
X159365500Y-100720009D01*
X159365499Y-99419992D01*
X159354999Y-99317203D01*
X159299814Y-99150666D01*
X159207712Y-99001344D01*
X159083656Y-98877288D01*
X158934334Y-98785186D01*
X158934333Y-98785185D01*
X158928878Y-98781821D01*
X158882154Y-98729873D01*
X158870931Y-98660910D01*
X158898775Y-98596828D01*
X158906272Y-98588623D01*
X159045104Y-98449792D01*
X159052083Y-98440187D01*
X159170048Y-98277820D01*
X159170047Y-98277820D01*
X159170051Y-98277816D01*
X159266557Y-98088412D01*
X159332246Y-97886243D01*
X159365500Y-97676287D01*
X159365500Y-97463713D01*
X159332246Y-97253757D01*
X159266557Y-97051588D01*
X159170051Y-96862184D01*
X159170049Y-96862181D01*
X159170048Y-96862179D01*
X159045109Y-96690213D01*
X158894792Y-96539896D01*
X158854041Y-96510289D01*
X158730204Y-96420316D01*
X158687540Y-96364989D01*
X158681561Y-96295376D01*
X158714166Y-96233580D01*
X158730199Y-96219686D01*
X158894792Y-96100104D01*
X159045104Y-95949792D01*
X159045106Y-95949788D01*
X159045109Y-95949786D01*
X159170048Y-95777820D01*
X159170047Y-95777820D01*
X159170051Y-95777816D01*
X159266557Y-95588412D01*
X159332246Y-95386243D01*
X159365500Y-95176287D01*
X159365500Y-94963713D01*
X159332246Y-94753757D01*
X159266557Y-94551588D01*
X159170051Y-94362184D01*
X159170049Y-94362181D01*
X159170048Y-94362179D01*
X159055193Y-94204093D01*
X159045109Y-94190214D01*
X159045105Y-94190209D01*
X158990155Y-94135259D01*
X164349500Y-94135259D01*
X164349500Y-94364742D01*
X164365651Y-94487411D01*
X164379452Y-94592239D01*
X164394175Y-94647185D01*
X164438842Y-94813888D01*
X164526650Y-95025877D01*
X164526656Y-95025889D01*
X164613487Y-95176286D01*
X164641392Y-95224618D01*
X164781081Y-95406662D01*
X164781089Y-95406671D01*
X164943330Y-95568912D01*
X164943338Y-95568919D01*
X165125382Y-95708608D01*
X165125385Y-95708609D01*
X165125388Y-95708612D01*
X165324112Y-95823345D01*
X165324117Y-95823347D01*
X165324123Y-95823350D01*
X165415480Y-95861191D01*
X165536113Y-95911159D01*
X165757762Y-95970549D01*
X165985266Y-96000501D01*
X165985273Y-96000501D01*
X166214727Y-96000501D01*
X166214734Y-96000501D01*
X166442238Y-95970549D01*
X166663887Y-95911159D01*
X166875888Y-95823345D01*
X167074612Y-95708612D01*
X167256661Y-95568920D01*
X167256665Y-95568915D01*
X167256670Y-95568912D01*
X167418911Y-95406671D01*
X167418914Y-95406666D01*
X167418919Y-95406662D01*
X167558611Y-95224613D01*
X167673344Y-95025889D01*
X167761158Y-94813888D01*
X167820548Y-94592239D01*
X167850500Y-94364735D01*
X167850500Y-94135267D01*
X167820548Y-93907763D01*
X167761158Y-93686114D01*
X167697642Y-93532774D01*
X167673349Y-93474124D01*
X167673346Y-93474118D01*
X167673344Y-93474113D01*
X167558611Y-93275389D01*
X167558608Y-93275386D01*
X167558607Y-93275383D01*
X167418918Y-93093339D01*
X167418911Y-93093331D01*
X167256670Y-92931090D01*
X167256661Y-92931082D01*
X167074617Y-92791393D01*
X166875890Y-92676658D01*
X166875876Y-92676651D01*
X166663887Y-92588843D01*
X166442238Y-92529453D01*
X166404215Y-92524447D01*
X166214741Y-92499501D01*
X166214734Y-92499501D01*
X165985266Y-92499501D01*
X165985258Y-92499501D01*
X165768715Y-92528010D01*
X165757762Y-92529453D01*
X165664076Y-92554555D01*
X165536112Y-92588843D01*
X165324123Y-92676651D01*
X165324109Y-92676658D01*
X165125382Y-92791393D01*
X164943338Y-92931082D01*
X164781081Y-93093339D01*
X164641392Y-93275383D01*
X164526657Y-93474110D01*
X164526650Y-93474124D01*
X164438842Y-93686113D01*
X164379453Y-93907760D01*
X164379451Y-93907771D01*
X164349500Y-94135259D01*
X158990155Y-94135259D01*
X158894792Y-94039896D01*
X158884520Y-94032433D01*
X158730204Y-93920316D01*
X158687540Y-93864989D01*
X158681561Y-93795376D01*
X158714166Y-93733580D01*
X158730199Y-93719686D01*
X158894792Y-93600104D01*
X159045104Y-93449792D01*
X159045106Y-93449788D01*
X159045109Y-93449786D01*
X159170048Y-93277820D01*
X159170047Y-93277820D01*
X159170051Y-93277816D01*
X159266557Y-93088412D01*
X159332246Y-92886243D01*
X159365500Y-92676287D01*
X159365500Y-92463713D01*
X159332246Y-92253757D01*
X159266557Y-92051588D01*
X159170051Y-91862184D01*
X159170049Y-91862181D01*
X159170048Y-91862179D01*
X159045109Y-91690213D01*
X158894792Y-91539896D01*
X158894784Y-91539890D01*
X158730204Y-91420316D01*
X158687540Y-91364989D01*
X158681561Y-91295376D01*
X158714166Y-91233580D01*
X158730199Y-91219686D01*
X158894792Y-91100104D01*
X159045104Y-90949792D01*
X159045106Y-90949788D01*
X159045109Y-90949786D01*
X159170048Y-90777820D01*
X159170047Y-90777820D01*
X159170051Y-90777816D01*
X159266557Y-90588412D01*
X159332246Y-90386243D01*
X159365500Y-90176287D01*
X159365500Y-89963713D01*
X159332246Y-89753757D01*
X159266557Y-89551588D01*
X159170051Y-89362184D01*
X159170049Y-89362181D01*
X159170048Y-89362179D01*
X159045109Y-89190213D01*
X158894786Y-89039890D01*
X158722820Y-88914951D01*
X158533414Y-88818444D01*
X158533413Y-88818443D01*
X158533412Y-88818443D01*
X158331243Y-88752754D01*
X158331241Y-88752753D01*
X158331240Y-88752753D01*
X158169957Y-88727208D01*
X158121287Y-88719500D01*
X157658713Y-88719500D01*
X157610042Y-88727208D01*
X157448760Y-88752753D01*
X157246585Y-88818444D01*
X157057179Y-88914951D01*
X156885213Y-89039890D01*
X156734890Y-89190213D01*
X156609951Y-89362179D01*
X156513444Y-89551585D01*
X156447753Y-89753760D01*
X156414500Y-89963713D01*
X92600500Y-89963713D01*
X92600500Y-88921153D01*
X120199500Y-88921153D01*
X120199500Y-89078846D01*
X120230261Y-89233489D01*
X120230264Y-89233501D01*
X120290602Y-89379172D01*
X120290609Y-89379185D01*
X120378210Y-89510288D01*
X120378213Y-89510292D01*
X120489707Y-89621786D01*
X120489711Y-89621789D01*
X120620814Y-89709390D01*
X120620827Y-89709397D01*
X120766498Y-89769735D01*
X120766503Y-89769737D01*
X120921153Y-89800499D01*
X120921156Y-89800500D01*
X120921158Y-89800500D01*
X121078844Y-89800500D01*
X121078845Y-89800499D01*
X121233497Y-89769737D01*
X121379179Y-89709394D01*
X121379188Y-89709387D01*
X121384553Y-89706521D01*
X121385705Y-89708676D01*
X121442131Y-89691019D01*
X121444323Y-89691000D01*
X124055677Y-89691000D01*
X124114509Y-89708275D01*
X124115447Y-89706521D01*
X124120815Y-89709390D01*
X124120821Y-89709394D01*
X124120827Y-89709396D01*
X124120828Y-89709397D01*
X124227931Y-89753760D01*
X124266503Y-89769737D01*
X124421153Y-89800499D01*
X124421156Y-89800500D01*
X124421158Y-89800500D01*
X124578844Y-89800500D01*
X124578845Y-89800499D01*
X124733497Y-89769737D01*
X124879179Y-89709394D01*
X125010289Y-89621789D01*
X125121789Y-89510289D01*
X125209394Y-89379179D01*
X125269737Y-89233497D01*
X125300500Y-89078842D01*
X125300500Y-88921158D01*
X125300500Y-88921155D01*
X125300499Y-88921153D01*
X125280069Y-88818444D01*
X125269737Y-88766503D01*
X125250268Y-88719500D01*
X125209397Y-88620827D01*
X125209390Y-88620814D01*
X125121789Y-88489711D01*
X125121786Y-88489707D01*
X125010292Y-88378213D01*
X125010288Y-88378210D01*
X124879185Y-88290609D01*
X124879172Y-88290602D01*
X124733501Y-88230264D01*
X124733489Y-88230261D01*
X124578845Y-88199500D01*
X124578842Y-88199500D01*
X124421158Y-88199500D01*
X124421155Y-88199500D01*
X124266510Y-88230261D01*
X124266498Y-88230264D01*
X124120828Y-88290602D01*
X124115447Y-88293479D01*
X124114294Y-88291323D01*
X124057869Y-88308981D01*
X124055677Y-88309000D01*
X121444323Y-88309000D01*
X121385490Y-88291724D01*
X121384553Y-88293479D01*
X121379181Y-88290607D01*
X121379179Y-88290606D01*
X121379176Y-88290605D01*
X121379171Y-88290602D01*
X121233501Y-88230264D01*
X121233489Y-88230261D01*
X121078845Y-88199500D01*
X121078842Y-88199500D01*
X120921158Y-88199500D01*
X120921155Y-88199500D01*
X120766510Y-88230261D01*
X120766498Y-88230264D01*
X120620827Y-88290602D01*
X120620814Y-88290609D01*
X120489711Y-88378210D01*
X120489707Y-88378213D01*
X120378213Y-88489707D01*
X120378210Y-88489711D01*
X120290609Y-88620814D01*
X120290602Y-88620827D01*
X120230264Y-88766498D01*
X120230261Y-88766510D01*
X120199500Y-88921153D01*
X92600500Y-88921153D01*
X92600500Y-86921153D01*
X150699500Y-86921153D01*
X150699500Y-87078846D01*
X150730261Y-87233489D01*
X150730264Y-87233501D01*
X150790602Y-87379172D01*
X150790609Y-87379185D01*
X150878210Y-87510288D01*
X150878213Y-87510292D01*
X150989707Y-87621786D01*
X150989711Y-87621789D01*
X151120814Y-87709390D01*
X151120827Y-87709397D01*
X151266498Y-87769735D01*
X151266503Y-87769737D01*
X151421153Y-87800499D01*
X151421156Y-87800500D01*
X151421158Y-87800500D01*
X151578844Y-87800500D01*
X151578845Y-87800499D01*
X151733497Y-87769737D01*
X151879179Y-87709394D01*
X151970466Y-87648398D01*
X152037143Y-87627520D01*
X152039357Y-87627500D01*
X153960643Y-87627500D01*
X154027682Y-87647185D01*
X154029534Y-87648398D01*
X154120814Y-87709390D01*
X154120827Y-87709397D01*
X154266498Y-87769735D01*
X154266503Y-87769737D01*
X154421153Y-87800499D01*
X154421156Y-87800500D01*
X154421158Y-87800500D01*
X154578844Y-87800500D01*
X154578845Y-87800499D01*
X154733497Y-87769737D01*
X154879179Y-87709394D01*
X155010289Y-87621789D01*
X155121789Y-87510289D01*
X155209394Y-87379179D01*
X155269737Y-87233497D01*
X155300500Y-87078842D01*
X155300500Y-86921158D01*
X155300500Y-86921155D01*
X155300499Y-86921153D01*
X157072500Y-86921153D01*
X157072500Y-87078846D01*
X157103261Y-87233489D01*
X157103264Y-87233501D01*
X157163602Y-87379172D01*
X157163609Y-87379185D01*
X157251210Y-87510288D01*
X157251213Y-87510292D01*
X157362707Y-87621786D01*
X157362711Y-87621789D01*
X157493814Y-87709390D01*
X157493827Y-87709397D01*
X157639498Y-87769735D01*
X157639503Y-87769737D01*
X157794153Y-87800499D01*
X157794156Y-87800500D01*
X157794158Y-87800500D01*
X157951844Y-87800500D01*
X157951845Y-87800499D01*
X158106497Y-87769737D01*
X158252179Y-87709394D01*
X158343466Y-87648398D01*
X158410143Y-87627520D01*
X158412357Y-87627500D01*
X161460643Y-87627500D01*
X161527682Y-87647185D01*
X161529534Y-87648398D01*
X161620814Y-87709390D01*
X161620827Y-87709397D01*
X161766498Y-87769735D01*
X161766503Y-87769737D01*
X161921153Y-87800499D01*
X161921156Y-87800500D01*
X161921158Y-87800500D01*
X162078844Y-87800500D01*
X162078845Y-87800499D01*
X162233497Y-87769737D01*
X162379179Y-87709394D01*
X162510289Y-87621789D01*
X162621789Y-87510289D01*
X162709394Y-87379179D01*
X162769737Y-87233497D01*
X162800500Y-87078842D01*
X162800500Y-86921158D01*
X162800500Y-86921155D01*
X162800499Y-86921153D01*
X162769738Y-86766510D01*
X162769737Y-86766503D01*
X162709794Y-86621786D01*
X162709397Y-86620827D01*
X162709390Y-86620814D01*
X162621789Y-86489711D01*
X162621786Y-86489707D01*
X162510292Y-86378213D01*
X162510288Y-86378210D01*
X162379185Y-86290609D01*
X162379172Y-86290602D01*
X162233501Y-86230264D01*
X162233489Y-86230261D01*
X162078845Y-86199500D01*
X162078842Y-86199500D01*
X161921158Y-86199500D01*
X161921155Y-86199500D01*
X161766510Y-86230261D01*
X161766498Y-86230264D01*
X161620827Y-86290602D01*
X161620814Y-86290609D01*
X161529534Y-86351602D01*
X161462857Y-86372480D01*
X161460643Y-86372500D01*
X158412357Y-86372500D01*
X158345318Y-86352815D01*
X158343466Y-86351602D01*
X158252185Y-86290609D01*
X158252172Y-86290602D01*
X158106501Y-86230264D01*
X158106489Y-86230261D01*
X157951845Y-86199500D01*
X157951842Y-86199500D01*
X157794158Y-86199500D01*
X157794155Y-86199500D01*
X157639510Y-86230261D01*
X157639498Y-86230264D01*
X157493827Y-86290602D01*
X157493814Y-86290609D01*
X157362711Y-86378210D01*
X157362707Y-86378213D01*
X157251213Y-86489707D01*
X157251210Y-86489711D01*
X157163609Y-86620814D01*
X157163602Y-86620827D01*
X157103264Y-86766498D01*
X157103261Y-86766510D01*
X157072500Y-86921153D01*
X155300499Y-86921153D01*
X155269738Y-86766510D01*
X155269737Y-86766503D01*
X155209794Y-86621786D01*
X155209397Y-86620827D01*
X155209390Y-86620814D01*
X155121789Y-86489711D01*
X155121786Y-86489707D01*
X155010292Y-86378213D01*
X155010288Y-86378210D01*
X154879185Y-86290609D01*
X154879172Y-86290602D01*
X154733501Y-86230264D01*
X154733489Y-86230261D01*
X154578845Y-86199500D01*
X154578842Y-86199500D01*
X154421158Y-86199500D01*
X154421155Y-86199500D01*
X154266510Y-86230261D01*
X154266498Y-86230264D01*
X154120827Y-86290602D01*
X154120814Y-86290609D01*
X154029534Y-86351602D01*
X153962857Y-86372480D01*
X153960643Y-86372500D01*
X152039357Y-86372500D01*
X151972318Y-86352815D01*
X151970466Y-86351602D01*
X151879185Y-86290609D01*
X151879172Y-86290602D01*
X151733501Y-86230264D01*
X151733489Y-86230261D01*
X151578845Y-86199500D01*
X151578842Y-86199500D01*
X151421158Y-86199500D01*
X151421155Y-86199500D01*
X151266510Y-86230261D01*
X151266498Y-86230264D01*
X151120827Y-86290602D01*
X151120814Y-86290609D01*
X150989711Y-86378210D01*
X150989707Y-86378213D01*
X150878213Y-86489707D01*
X150878210Y-86489711D01*
X150790609Y-86620814D01*
X150790602Y-86620827D01*
X150730264Y-86766498D01*
X150730261Y-86766510D01*
X150699500Y-86921153D01*
X92600500Y-86921153D01*
X92600500Y-82921153D01*
X120699500Y-82921153D01*
X120699500Y-83078846D01*
X120730261Y-83233489D01*
X120730264Y-83233501D01*
X120790602Y-83379172D01*
X120790609Y-83379185D01*
X120878210Y-83510288D01*
X120878213Y-83510292D01*
X120989707Y-83621786D01*
X120989711Y-83621789D01*
X121120814Y-83709390D01*
X121120827Y-83709397D01*
X121266498Y-83769735D01*
X121266503Y-83769737D01*
X121421153Y-83800499D01*
X121421156Y-83800500D01*
X121421158Y-83800500D01*
X121578844Y-83800500D01*
X121578845Y-83800499D01*
X121733497Y-83769737D01*
X121879179Y-83709394D01*
X121970466Y-83648398D01*
X122037143Y-83627520D01*
X122039357Y-83627500D01*
X126688719Y-83627500D01*
X126755758Y-83647185D01*
X126776400Y-83663819D01*
X129174907Y-86062326D01*
X129208392Y-86123649D01*
X129208843Y-86125815D01*
X129230261Y-86233491D01*
X129230264Y-86233501D01*
X129290602Y-86379172D01*
X129290609Y-86379185D01*
X129378210Y-86510288D01*
X129378213Y-86510292D01*
X129489707Y-86621786D01*
X129489711Y-86621789D01*
X129620814Y-86709390D01*
X129620827Y-86709397D01*
X129758683Y-86766498D01*
X129766503Y-86769737D01*
X129921153Y-86800499D01*
X129921156Y-86800500D01*
X129921158Y-86800500D01*
X130078844Y-86800500D01*
X130078845Y-86800499D01*
X130089179Y-86798443D01*
X130114287Y-86793450D01*
X130114292Y-86793449D01*
X130199800Y-86776439D01*
X130233497Y-86769737D01*
X130379179Y-86709394D01*
X130510289Y-86621789D01*
X130621789Y-86510289D01*
X130709394Y-86379179D01*
X130769737Y-86233497D01*
X130800500Y-86078842D01*
X130800500Y-85921158D01*
X130800500Y-85921155D01*
X130800499Y-85921153D01*
X130769738Y-85766510D01*
X130769737Y-85766503D01*
X130769735Y-85766498D01*
X130709397Y-85620827D01*
X130709390Y-85620814D01*
X130621789Y-85489711D01*
X130621786Y-85489707D01*
X130510292Y-85378213D01*
X130510288Y-85378210D01*
X130379185Y-85290609D01*
X130379172Y-85290602D01*
X130233501Y-85230264D01*
X130233491Y-85230261D01*
X130125815Y-85208843D01*
X130063904Y-85176458D01*
X130062326Y-85174907D01*
X127400011Y-82512591D01*
X127400009Y-82512589D01*
X127376487Y-82496873D01*
X127376488Y-82496873D01*
X127373271Y-82494724D01*
X127297233Y-82443917D01*
X127263784Y-82430062D01*
X127256103Y-82426880D01*
X127256099Y-82426878D01*
X127183035Y-82396614D01*
X127183027Y-82396612D01*
X127061807Y-82372500D01*
X127061803Y-82372500D01*
X122039357Y-82372500D01*
X121972318Y-82352815D01*
X121970466Y-82351602D01*
X121879185Y-82290609D01*
X121879172Y-82290602D01*
X121733501Y-82230264D01*
X121733489Y-82230261D01*
X121578845Y-82199500D01*
X121578842Y-82199500D01*
X121421158Y-82199500D01*
X121421155Y-82199500D01*
X121266510Y-82230261D01*
X121266498Y-82230264D01*
X121120827Y-82290602D01*
X121120814Y-82290609D01*
X120989711Y-82378210D01*
X120989707Y-82378213D01*
X120878213Y-82489707D01*
X120878210Y-82489711D01*
X120790609Y-82620814D01*
X120790602Y-82620827D01*
X120730264Y-82766498D01*
X120730261Y-82766510D01*
X120699500Y-82921153D01*
X92600500Y-82921153D01*
X92600500Y-80421153D01*
X103199500Y-80421153D01*
X103199500Y-80578846D01*
X103230261Y-80733489D01*
X103230264Y-80733501D01*
X103290602Y-80879172D01*
X103290609Y-80879185D01*
X103378210Y-81010288D01*
X103378213Y-81010292D01*
X103489707Y-81121786D01*
X103489711Y-81121789D01*
X103620814Y-81209390D01*
X103620827Y-81209397D01*
X103766498Y-81269735D01*
X103766503Y-81269737D01*
X103921153Y-81300499D01*
X103921156Y-81300500D01*
X103921158Y-81300500D01*
X104078844Y-81300500D01*
X104078845Y-81300499D01*
X104233497Y-81269737D01*
X104379179Y-81209394D01*
X104510289Y-81121789D01*
X104621789Y-81010289D01*
X104709394Y-80879179D01*
X104769737Y-80733497D01*
X104800500Y-80578842D01*
X104800500Y-80421158D01*
X104800500Y-80421155D01*
X104800499Y-80421153D01*
X104769738Y-80266510D01*
X104769737Y-80266503D01*
X104769735Y-80266498D01*
X104709397Y-80120827D01*
X104709390Y-80120814D01*
X104648398Y-80029533D01*
X104627520Y-79962855D01*
X104627500Y-79960642D01*
X104627500Y-78921153D01*
X151699500Y-78921153D01*
X151699500Y-79078846D01*
X151730261Y-79233489D01*
X151730264Y-79233501D01*
X151790602Y-79379172D01*
X151790609Y-79379185D01*
X151878210Y-79510288D01*
X151878213Y-79510292D01*
X151989707Y-79621786D01*
X151989711Y-79621789D01*
X152120814Y-79709390D01*
X152120827Y-79709397D01*
X152230082Y-79754651D01*
X152266503Y-79769737D01*
X152272688Y-79770967D01*
X152334600Y-79803350D01*
X152369176Y-79864065D01*
X152372500Y-79892585D01*
X152372500Y-82460642D01*
X152352815Y-82527681D01*
X152351602Y-82529533D01*
X152290609Y-82620814D01*
X152290602Y-82620827D01*
X152230264Y-82766498D01*
X152230261Y-82766510D01*
X152199500Y-82921153D01*
X152199500Y-83078846D01*
X152230261Y-83233489D01*
X152230264Y-83233501D01*
X152290602Y-83379172D01*
X152290609Y-83379185D01*
X152378210Y-83510288D01*
X152378213Y-83510292D01*
X152489707Y-83621786D01*
X152489711Y-83621789D01*
X152620814Y-83709390D01*
X152620827Y-83709397D01*
X152766498Y-83769735D01*
X152766503Y-83769737D01*
X152921153Y-83800499D01*
X152921156Y-83800500D01*
X152921158Y-83800500D01*
X153078844Y-83800500D01*
X153078845Y-83800499D01*
X153233497Y-83769737D01*
X153379179Y-83709394D01*
X153510289Y-83621789D01*
X153621789Y-83510289D01*
X153709394Y-83379179D01*
X153769737Y-83233497D01*
X153800500Y-83078842D01*
X153800500Y-82921158D01*
X153800500Y-82921155D01*
X153800499Y-82921153D01*
X153769738Y-82766510D01*
X153769737Y-82766503D01*
X153769735Y-82766498D01*
X153709397Y-82620827D01*
X153709390Y-82620814D01*
X153648398Y-82529533D01*
X153627520Y-82462855D01*
X153627500Y-82460642D01*
X153627500Y-79438196D01*
X153627499Y-79438195D01*
X153616291Y-79381845D01*
X153603386Y-79316966D01*
X153556653Y-79204144D01*
X153556311Y-79203108D01*
X153487414Y-79099996D01*
X153487413Y-79099994D01*
X153466261Y-79078842D01*
X153400008Y-79012589D01*
X153325091Y-78937672D01*
X153291606Y-78876349D01*
X153291183Y-78874323D01*
X153269737Y-78766503D01*
X153212142Y-78627455D01*
X153209397Y-78620827D01*
X153209390Y-78620814D01*
X153121790Y-78489712D01*
X153121784Y-78489705D01*
X153053232Y-78421153D01*
X156699500Y-78421153D01*
X156699500Y-78578846D01*
X156730261Y-78733489D01*
X156730264Y-78733501D01*
X156790602Y-78879172D01*
X156790609Y-78879185D01*
X156878210Y-79010288D01*
X156878213Y-79010292D01*
X156989707Y-79121786D01*
X156989711Y-79121789D01*
X157120814Y-79209390D01*
X157120827Y-79209397D01*
X157178992Y-79233489D01*
X157266503Y-79269737D01*
X157374185Y-79291156D01*
X157436092Y-79323539D01*
X157437672Y-79325091D01*
X160336181Y-82223600D01*
X160369666Y-82284923D01*
X160372500Y-82311281D01*
X160372500Y-82960642D01*
X160352815Y-83027681D01*
X160351602Y-83029533D01*
X160290609Y-83120814D01*
X160290602Y-83120827D01*
X160230264Y-83266498D01*
X160230261Y-83266510D01*
X160199500Y-83421153D01*
X160199500Y-83578846D01*
X160230261Y-83733489D01*
X160230264Y-83733501D01*
X160290602Y-83879172D01*
X160290609Y-83879185D01*
X160378210Y-84010288D01*
X160378213Y-84010292D01*
X160489707Y-84121786D01*
X160489711Y-84121789D01*
X160620814Y-84209390D01*
X160620827Y-84209397D01*
X160766498Y-84269735D01*
X160766503Y-84269737D01*
X160921153Y-84300499D01*
X160921156Y-84300500D01*
X160921158Y-84300500D01*
X161078844Y-84300500D01*
X161078845Y-84300499D01*
X161233497Y-84269737D01*
X161379179Y-84209394D01*
X161510289Y-84121789D01*
X161621789Y-84010289D01*
X161709394Y-83879179D01*
X161769737Y-83733497D01*
X161800500Y-83578842D01*
X161800500Y-83421158D01*
X161800500Y-83421155D01*
X161800499Y-83421153D01*
X161769738Y-83266510D01*
X161769737Y-83266503D01*
X161756062Y-83233489D01*
X161709397Y-83120827D01*
X161709390Y-83120814D01*
X161648398Y-83029533D01*
X161627520Y-82962855D01*
X161627500Y-82960642D01*
X161627500Y-81938194D01*
X161603386Y-81816970D01*
X161603385Y-81816969D01*
X161603385Y-81816965D01*
X161603383Y-81816960D01*
X161556086Y-81702773D01*
X161556079Y-81702760D01*
X161487412Y-81599993D01*
X161487411Y-81599992D01*
X161400008Y-81512589D01*
X158325091Y-78437672D01*
X158291606Y-78376349D01*
X158291183Y-78374323D01*
X158269737Y-78266503D01*
X158241984Y-78199500D01*
X158209397Y-78120827D01*
X158209390Y-78120814D01*
X158121789Y-77989711D01*
X158121786Y-77989707D01*
X158010292Y-77878213D01*
X158010288Y-77878210D01*
X157879185Y-77790609D01*
X157879172Y-77790602D01*
X157733501Y-77730264D01*
X157733489Y-77730261D01*
X157578845Y-77699500D01*
X157578842Y-77699500D01*
X157421158Y-77699500D01*
X157421155Y-77699500D01*
X157266510Y-77730261D01*
X157266498Y-77730264D01*
X157120827Y-77790602D01*
X157120814Y-77790609D01*
X156989711Y-77878210D01*
X156989707Y-77878213D01*
X156878213Y-77989707D01*
X156878210Y-77989711D01*
X156790609Y-78120814D01*
X156790602Y-78120827D01*
X156730264Y-78266498D01*
X156730261Y-78266510D01*
X156699500Y-78421153D01*
X153053232Y-78421153D01*
X153010292Y-78378213D01*
X153010288Y-78378210D01*
X152879185Y-78290609D01*
X152879172Y-78290602D01*
X152733501Y-78230264D01*
X152733489Y-78230261D01*
X152578845Y-78199500D01*
X152578842Y-78199500D01*
X152421158Y-78199500D01*
X152421155Y-78199500D01*
X152266510Y-78230261D01*
X152266498Y-78230264D01*
X152120827Y-78290602D01*
X152120814Y-78290609D01*
X151989711Y-78378210D01*
X151989707Y-78378213D01*
X151878213Y-78489707D01*
X151878210Y-78489711D01*
X151790609Y-78620814D01*
X151790602Y-78620827D01*
X151730264Y-78766498D01*
X151730261Y-78766510D01*
X151699500Y-78921153D01*
X104627500Y-78921153D01*
X104627500Y-75921153D01*
X109199500Y-75921153D01*
X109199500Y-76078846D01*
X109230261Y-76233489D01*
X109230264Y-76233501D01*
X109290603Y-76379174D01*
X109290604Y-76379175D01*
X109290606Y-76379179D01*
X109314899Y-76415535D01*
X109351602Y-76470465D01*
X109372480Y-76537142D01*
X109372500Y-76539356D01*
X109372500Y-77460642D01*
X109352815Y-77527681D01*
X109351602Y-77529533D01*
X109290609Y-77620814D01*
X109290602Y-77620827D01*
X109230264Y-77766498D01*
X109230261Y-77766510D01*
X109199500Y-77921153D01*
X109199500Y-78078846D01*
X109230261Y-78233489D01*
X109230264Y-78233501D01*
X109290602Y-78379172D01*
X109290609Y-78379185D01*
X109378210Y-78510288D01*
X109378213Y-78510292D01*
X109489707Y-78621786D01*
X109489711Y-78621789D01*
X109620814Y-78709390D01*
X109620827Y-78709397D01*
X109758693Y-78766502D01*
X109766503Y-78769737D01*
X109921153Y-78800499D01*
X109921156Y-78800500D01*
X109921158Y-78800500D01*
X110078844Y-78800500D01*
X110078845Y-78800499D01*
X110089179Y-78798443D01*
X110114287Y-78793450D01*
X110114292Y-78793449D01*
X110199800Y-78776439D01*
X110233497Y-78769737D01*
X110379179Y-78709394D01*
X110510289Y-78621789D01*
X110621789Y-78510289D01*
X110709394Y-78379179D01*
X110769737Y-78233497D01*
X110800500Y-78078842D01*
X110800500Y-77921158D01*
X110800500Y-77921155D01*
X110800499Y-77921153D01*
X110774531Y-77790606D01*
X110769737Y-77766503D01*
X110767427Y-77760925D01*
X110709397Y-77620827D01*
X110709390Y-77620814D01*
X110648398Y-77529533D01*
X110627520Y-77462855D01*
X110627500Y-77460642D01*
X110627500Y-76539356D01*
X110647185Y-76472317D01*
X110648398Y-76470465D01*
X110709394Y-76379179D01*
X110769737Y-76233497D01*
X110800500Y-76078842D01*
X110800500Y-75921158D01*
X110800500Y-75921155D01*
X110800499Y-75921153D01*
X110769738Y-75766510D01*
X110769737Y-75766503D01*
X110715181Y-75634792D01*
X110709397Y-75620827D01*
X110709390Y-75620814D01*
X110621789Y-75489711D01*
X110621786Y-75489707D01*
X110510292Y-75378213D01*
X110510288Y-75378210D01*
X110379185Y-75290609D01*
X110379172Y-75290602D01*
X110233501Y-75230264D01*
X110233489Y-75230261D01*
X110078845Y-75199500D01*
X110078842Y-75199500D01*
X109921158Y-75199500D01*
X109921155Y-75199500D01*
X109766510Y-75230261D01*
X109766498Y-75230264D01*
X109620827Y-75290602D01*
X109620814Y-75290609D01*
X109489711Y-75378210D01*
X109489707Y-75378213D01*
X109378213Y-75489707D01*
X109378210Y-75489711D01*
X109290609Y-75620814D01*
X109290602Y-75620827D01*
X109230264Y-75766498D01*
X109230261Y-75766510D01*
X109199500Y-75921153D01*
X104627500Y-75921153D01*
X104627500Y-75892585D01*
X104647185Y-75825546D01*
X104699989Y-75779791D01*
X104727309Y-75770967D01*
X104733497Y-75769737D01*
X104879179Y-75709394D01*
X105010289Y-75621789D01*
X105121789Y-75510289D01*
X105209394Y-75379179D01*
X105269737Y-75233497D01*
X105300500Y-75078842D01*
X105300500Y-74921158D01*
X105300500Y-74921155D01*
X105300499Y-74921153D01*
X105288591Y-74861287D01*
X105269737Y-74766503D01*
X105246080Y-74709390D01*
X105209397Y-74620827D01*
X105209390Y-74620814D01*
X105121789Y-74489711D01*
X105121786Y-74489707D01*
X105010292Y-74378213D01*
X105010288Y-74378210D01*
X104879185Y-74290609D01*
X104879172Y-74290602D01*
X104733501Y-74230264D01*
X104733489Y-74230261D01*
X104578845Y-74199500D01*
X104578842Y-74199500D01*
X104421158Y-74199500D01*
X104421155Y-74199500D01*
X104266510Y-74230261D01*
X104266498Y-74230264D01*
X104120827Y-74290602D01*
X104120814Y-74290609D01*
X103989711Y-74378210D01*
X103989707Y-74378213D01*
X103878213Y-74489707D01*
X103878210Y-74489711D01*
X103790609Y-74620814D01*
X103790602Y-74620827D01*
X103730264Y-74766498D01*
X103730261Y-74766508D01*
X103708843Y-74874182D01*
X103700078Y-74890937D01*
X103696059Y-74909415D01*
X103677315Y-74934454D01*
X103676458Y-74936093D01*
X103674908Y-74937670D01*
X103599992Y-75012588D01*
X103599991Y-75012589D01*
X103512591Y-75099988D01*
X103512585Y-75099996D01*
X103443233Y-75203789D01*
X103441586Y-75208393D01*
X103396614Y-75316964D01*
X103396612Y-75316972D01*
X103372500Y-75438192D01*
X103372500Y-79960642D01*
X103352815Y-80027681D01*
X103351602Y-80029533D01*
X103290609Y-80120814D01*
X103290602Y-80120827D01*
X103230264Y-80266498D01*
X103230261Y-80266510D01*
X103199500Y-80421153D01*
X92600500Y-80421153D01*
X92600500Y-68653713D01*
X96034500Y-68653713D01*
X96034500Y-68866286D01*
X96067753Y-69076239D01*
X96133444Y-69278414D01*
X96229951Y-69467820D01*
X96354890Y-69639786D01*
X96505209Y-69790105D01*
X96505214Y-69790109D01*
X96669793Y-69909682D01*
X96712459Y-69965011D01*
X96718438Y-70034625D01*
X96685833Y-70096420D01*
X96669793Y-70110318D01*
X96505214Y-70229890D01*
X96505209Y-70229894D01*
X96354890Y-70380213D01*
X96229951Y-70552179D01*
X96133444Y-70741585D01*
X96067753Y-70943760D01*
X96034500Y-71153713D01*
X96034500Y-71366286D01*
X96067753Y-71576239D01*
X96133444Y-71778414D01*
X96229951Y-71967820D01*
X96354890Y-72139786D01*
X96505209Y-72290105D01*
X96505214Y-72290109D01*
X96669793Y-72409682D01*
X96712459Y-72465011D01*
X96718438Y-72534625D01*
X96685833Y-72596420D01*
X96669793Y-72610318D01*
X96505214Y-72729890D01*
X96505209Y-72729894D01*
X96354890Y-72880213D01*
X96229951Y-73052179D01*
X96133444Y-73241585D01*
X96067753Y-73443760D01*
X96034500Y-73653713D01*
X96034500Y-73866286D01*
X96067753Y-74076239D01*
X96067753Y-74076241D01*
X96067754Y-74076243D01*
X96119853Y-74236588D01*
X96133444Y-74278414D01*
X96229951Y-74467820D01*
X96354890Y-74639786D01*
X96505209Y-74790105D01*
X96505214Y-74790109D01*
X96669793Y-74909682D01*
X96712459Y-74965011D01*
X96718438Y-75034625D01*
X96685833Y-75096420D01*
X96669793Y-75110318D01*
X96505214Y-75229890D01*
X96505209Y-75229894D01*
X96354890Y-75380213D01*
X96229951Y-75552179D01*
X96133444Y-75741585D01*
X96067753Y-75943760D01*
X96034500Y-76153713D01*
X96034500Y-76366286D01*
X96061911Y-76539356D01*
X96067754Y-76576243D01*
X96132913Y-76776782D01*
X96133444Y-76778414D01*
X96229951Y-76967820D01*
X96354890Y-77139786D01*
X96493705Y-77278601D01*
X96527190Y-77339924D01*
X96522206Y-77409616D01*
X96480334Y-77465549D01*
X96471121Y-77471821D01*
X96316342Y-77567289D01*
X96192289Y-77691342D01*
X96100187Y-77840663D01*
X96100186Y-77840666D01*
X96045001Y-78007203D01*
X96045001Y-78007204D01*
X96045000Y-78007204D01*
X96034500Y-78109983D01*
X96034500Y-79410001D01*
X96034501Y-79410018D01*
X96045000Y-79512796D01*
X96045001Y-79512799D01*
X96100185Y-79679331D01*
X96100187Y-79679336D01*
X96118727Y-79709394D01*
X96192288Y-79828656D01*
X96316344Y-79952712D01*
X96465666Y-80044814D01*
X96632203Y-80099999D01*
X96734991Y-80110500D01*
X98285008Y-80110499D01*
X98387797Y-80099999D01*
X98554334Y-80044814D01*
X98703656Y-79952712D01*
X98827712Y-79828656D01*
X98919814Y-79679334D01*
X98974999Y-79512797D01*
X98985500Y-79410009D01*
X98985499Y-78109992D01*
X98974999Y-78007203D01*
X98919814Y-77840666D01*
X98827712Y-77691344D01*
X98703656Y-77567288D01*
X98554334Y-77475186D01*
X98554333Y-77475185D01*
X98548878Y-77471821D01*
X98502154Y-77419873D01*
X98490931Y-77350910D01*
X98518775Y-77286828D01*
X98526272Y-77278623D01*
X98665104Y-77139792D01*
X98790051Y-76967816D01*
X98886557Y-76778412D01*
X98952246Y-76576243D01*
X98985500Y-76366287D01*
X98985500Y-76153713D01*
X98952246Y-75943757D01*
X98886557Y-75741588D01*
X98790051Y-75552184D01*
X98790049Y-75552181D01*
X98790048Y-75552179D01*
X98665109Y-75380213D01*
X98514792Y-75229896D01*
X98485195Y-75208393D01*
X98350204Y-75110316D01*
X98307540Y-75054989D01*
X98301561Y-74985376D01*
X98334166Y-74923580D01*
X98350199Y-74909686D01*
X98514792Y-74790104D01*
X98665104Y-74639792D01*
X98665106Y-74639788D01*
X98665109Y-74639786D01*
X98790048Y-74467820D01*
X98790047Y-74467820D01*
X98790051Y-74467816D01*
X98886557Y-74278412D01*
X98952246Y-74076243D01*
X98976810Y-73921153D01*
X126699500Y-73921153D01*
X126699500Y-74078846D01*
X126730261Y-74233489D01*
X126730264Y-74233501D01*
X126790602Y-74379172D01*
X126790609Y-74379185D01*
X126878210Y-74510288D01*
X126878213Y-74510292D01*
X126989707Y-74621786D01*
X126989711Y-74621789D01*
X127120814Y-74709390D01*
X127120827Y-74709397D01*
X127258683Y-74766498D01*
X127266503Y-74769737D01*
X127421153Y-74800499D01*
X127421156Y-74800500D01*
X127421158Y-74800500D01*
X127578844Y-74800500D01*
X127578845Y-74800499D01*
X127733497Y-74769737D01*
X127879179Y-74709394D01*
X127970466Y-74648398D01*
X128037143Y-74627520D01*
X128039357Y-74627500D01*
X130460643Y-74627500D01*
X130527682Y-74647185D01*
X130529534Y-74648398D01*
X130620814Y-74709390D01*
X130620827Y-74709397D01*
X130758683Y-74766498D01*
X130766503Y-74769737D01*
X130921153Y-74800499D01*
X130921156Y-74800500D01*
X130921158Y-74800500D01*
X131078844Y-74800500D01*
X131078845Y-74800499D01*
X131233497Y-74769737D01*
X131379179Y-74709394D01*
X131510289Y-74621789D01*
X131621789Y-74510289D01*
X131709394Y-74379179D01*
X131769737Y-74233497D01*
X131800500Y-74078842D01*
X131800500Y-73921158D01*
X131800500Y-73921155D01*
X131800499Y-73921153D01*
X131769738Y-73766510D01*
X131769737Y-73766503D01*
X131752503Y-73724896D01*
X131709397Y-73620827D01*
X131709390Y-73620814D01*
X131621789Y-73489711D01*
X131621786Y-73489707D01*
X131510292Y-73378213D01*
X131510288Y-73378210D01*
X131379185Y-73290609D01*
X131379172Y-73290602D01*
X131233501Y-73230264D01*
X131233489Y-73230261D01*
X131078845Y-73199500D01*
X131078842Y-73199500D01*
X130921158Y-73199500D01*
X130921155Y-73199500D01*
X130766510Y-73230261D01*
X130766498Y-73230264D01*
X130620827Y-73290602D01*
X130620814Y-73290609D01*
X130529534Y-73351602D01*
X130462857Y-73372480D01*
X130460643Y-73372500D01*
X128039357Y-73372500D01*
X127972318Y-73352815D01*
X127970466Y-73351602D01*
X127879185Y-73290609D01*
X127879172Y-73290602D01*
X127733501Y-73230264D01*
X127733489Y-73230261D01*
X127578845Y-73199500D01*
X127578842Y-73199500D01*
X127421158Y-73199500D01*
X127421155Y-73199500D01*
X127266510Y-73230261D01*
X127266498Y-73230264D01*
X127120827Y-73290602D01*
X127120814Y-73290609D01*
X126989711Y-73378210D01*
X126989707Y-73378213D01*
X126878213Y-73489707D01*
X126878210Y-73489711D01*
X126790609Y-73620814D01*
X126790602Y-73620827D01*
X126730264Y-73766498D01*
X126730261Y-73766510D01*
X126699500Y-73921153D01*
X98976810Y-73921153D01*
X98985500Y-73866287D01*
X98985500Y-73653713D01*
X98952246Y-73443757D01*
X98886557Y-73241588D01*
X98790051Y-73052184D01*
X98790049Y-73052181D01*
X98790048Y-73052179D01*
X98665109Y-72880213D01*
X98514792Y-72729896D01*
X98514784Y-72729890D01*
X98350204Y-72610316D01*
X98333023Y-72588036D01*
X98313421Y-72567866D01*
X98311977Y-72560744D01*
X98307540Y-72554989D01*
X98305132Y-72526959D01*
X98299546Y-72499388D01*
X98302182Y-72492615D01*
X98301561Y-72485376D01*
X98314689Y-72460494D01*
X98324896Y-72434279D01*
X98332336Y-72427048D01*
X98334166Y-72423580D01*
X98336967Y-72421153D01*
X109199500Y-72421153D01*
X109199500Y-72578846D01*
X109230261Y-72733489D01*
X109230264Y-72733501D01*
X109290602Y-72879172D01*
X109290609Y-72879185D01*
X109378210Y-73010288D01*
X109378213Y-73010292D01*
X109489707Y-73121786D01*
X109489711Y-73121789D01*
X109620814Y-73209390D01*
X109620827Y-73209397D01*
X109707033Y-73245104D01*
X109766503Y-73269737D01*
X109921153Y-73300499D01*
X109921156Y-73300500D01*
X109921158Y-73300500D01*
X110078844Y-73300500D01*
X110078845Y-73300499D01*
X110233497Y-73269737D01*
X110379179Y-73209394D01*
X110510289Y-73121789D01*
X110621789Y-73010289D01*
X110709394Y-72879179D01*
X110769737Y-72733497D01*
X110800500Y-72578842D01*
X110800500Y-72421158D01*
X110800500Y-72421155D01*
X110800499Y-72421153D01*
X110779333Y-72314746D01*
X110769737Y-72266503D01*
X110717250Y-72139786D01*
X110709397Y-72120827D01*
X110709390Y-72120814D01*
X110648398Y-72029533D01*
X110627520Y-71962855D01*
X110627500Y-71960642D01*
X110627500Y-70311280D01*
X110647185Y-70244241D01*
X110663814Y-70223604D01*
X112062328Y-68825089D01*
X112123649Y-68791606D01*
X112125648Y-68791189D01*
X112233497Y-68769737D01*
X112379179Y-68709394D01*
X112510289Y-68621789D01*
X112621789Y-68510289D01*
X112709394Y-68379179D01*
X112769737Y-68233497D01*
X112800500Y-68078842D01*
X112800500Y-67921158D01*
X112800500Y-67921155D01*
X112800499Y-67921153D01*
X112769738Y-67766510D01*
X112769738Y-67766508D01*
X112769737Y-67766503D01*
X112754572Y-67729890D01*
X112709397Y-67620827D01*
X112709390Y-67620814D01*
X112621789Y-67489711D01*
X112621786Y-67489707D01*
X112510292Y-67378213D01*
X112510288Y-67378210D01*
X112379185Y-67290609D01*
X112379172Y-67290602D01*
X112233501Y-67230264D01*
X112233489Y-67230261D01*
X112078845Y-67199500D01*
X112078842Y-67199500D01*
X111921158Y-67199500D01*
X111921155Y-67199500D01*
X111766510Y-67230261D01*
X111766498Y-67230264D01*
X111620827Y-67290602D01*
X111620814Y-67290609D01*
X111489711Y-67378210D01*
X111489707Y-67378213D01*
X111378213Y-67489707D01*
X111378210Y-67489711D01*
X111290609Y-67620814D01*
X111290602Y-67620827D01*
X111230264Y-67766498D01*
X111230261Y-67766508D01*
X111208843Y-67874183D01*
X111176458Y-67936094D01*
X111174907Y-67937672D01*
X109955996Y-69156585D01*
X109599992Y-69512589D01*
X109556289Y-69556292D01*
X109512586Y-69599994D01*
X109512585Y-69599996D01*
X109443812Y-69702922D01*
X109443683Y-69703332D01*
X109396614Y-69816965D01*
X109378208Y-69909500D01*
X109376902Y-69916065D01*
X109376901Y-69916069D01*
X109372500Y-69938195D01*
X109372500Y-71960642D01*
X109352815Y-72027681D01*
X109351602Y-72029533D01*
X109290609Y-72120814D01*
X109290602Y-72120827D01*
X109230264Y-72266498D01*
X109230261Y-72266510D01*
X109199500Y-72421153D01*
X98336967Y-72421153D01*
X98350199Y-72409686D01*
X98514792Y-72290104D01*
X98665104Y-72139792D01*
X98665106Y-72139788D01*
X98665109Y-72139786D01*
X98790048Y-71967820D01*
X98790047Y-71967820D01*
X98790051Y-71967816D01*
X98886557Y-71778412D01*
X98952246Y-71576243D01*
X98985500Y-71366287D01*
X98985500Y-71153713D01*
X98952246Y-70943757D01*
X98886557Y-70741588D01*
X98790051Y-70552184D01*
X98790049Y-70552181D01*
X98790048Y-70552179D01*
X98665109Y-70380213D01*
X98514792Y-70229896D01*
X98464578Y-70193414D01*
X98350204Y-70110316D01*
X98307540Y-70054989D01*
X98301561Y-69985376D01*
X98334166Y-69923580D01*
X98350199Y-69909686D01*
X98514792Y-69790104D01*
X98665104Y-69639792D01*
X98665106Y-69639788D01*
X98665109Y-69639786D01*
X98790048Y-69467820D01*
X98790047Y-69467820D01*
X98790051Y-69467816D01*
X98886557Y-69278412D01*
X98952246Y-69076243D01*
X98985500Y-68866287D01*
X98985500Y-68653713D01*
X98952246Y-68443757D01*
X98886557Y-68241588D01*
X98790051Y-68052184D01*
X98790049Y-68052181D01*
X98790048Y-68052179D01*
X98665109Y-67880213D01*
X98514790Y-67729894D01*
X98514785Y-67729890D01*
X98349781Y-67610008D01*
X98307115Y-67554678D01*
X98301136Y-67485065D01*
X98333741Y-67423270D01*
X98349781Y-67409371D01*
X98514466Y-67289721D01*
X98664723Y-67139464D01*
X98664727Y-67139459D01*
X98789620Y-66967557D01*
X98886095Y-66778217D01*
X98951757Y-66576129D01*
X98951757Y-66576126D01*
X98962231Y-66510000D01*
X97914146Y-66510000D01*
X97952630Y-66443343D01*
X97985000Y-66322535D01*
X97985000Y-66197465D01*
X97952630Y-66076657D01*
X97914146Y-66010000D01*
X98962231Y-66010000D01*
X98951757Y-65943873D01*
X98951757Y-65943870D01*
X98886095Y-65741782D01*
X98789623Y-65552446D01*
X98742765Y-65487951D01*
X98742764Y-65487948D01*
X98694234Y-65421153D01*
X164199500Y-65421153D01*
X164199500Y-65578846D01*
X164230261Y-65733489D01*
X164230264Y-65733501D01*
X164290602Y-65879172D01*
X164290609Y-65879185D01*
X164378210Y-66010288D01*
X164378213Y-66010292D01*
X164489707Y-66121786D01*
X164489711Y-66121789D01*
X164620814Y-66209390D01*
X164620827Y-66209397D01*
X164766498Y-66269735D01*
X164766503Y-66269737D01*
X164921153Y-66300499D01*
X164921156Y-66300500D01*
X164921158Y-66300500D01*
X165078844Y-66300500D01*
X165078845Y-66300499D01*
X165233497Y-66269737D01*
X165379179Y-66209394D01*
X165470466Y-66148398D01*
X165537143Y-66127520D01*
X165539357Y-66127500D01*
X171460643Y-66127500D01*
X171527682Y-66147185D01*
X171529534Y-66148398D01*
X171620814Y-66209390D01*
X171620827Y-66209397D01*
X171766498Y-66269735D01*
X171766503Y-66269737D01*
X171921153Y-66300499D01*
X171921156Y-66300500D01*
X171921158Y-66300500D01*
X172078844Y-66300500D01*
X172078845Y-66300499D01*
X172233497Y-66269737D01*
X172379179Y-66209394D01*
X172510289Y-66121789D01*
X172621789Y-66010289D01*
X172709394Y-65879179D01*
X172769737Y-65733497D01*
X172800500Y-65578842D01*
X172800500Y-65421158D01*
X172800500Y-65421155D01*
X172800499Y-65421153D01*
X172769737Y-65266503D01*
X172769735Y-65266498D01*
X172709397Y-65120827D01*
X172709390Y-65120814D01*
X172621789Y-64989711D01*
X172621786Y-64989707D01*
X172510292Y-64878213D01*
X172510288Y-64878210D01*
X172379185Y-64790609D01*
X172379172Y-64790602D01*
X172233501Y-64730264D01*
X172233489Y-64730261D01*
X172078845Y-64699500D01*
X172078842Y-64699500D01*
X171921158Y-64699500D01*
X171921155Y-64699500D01*
X171766510Y-64730261D01*
X171766498Y-64730264D01*
X171620827Y-64790602D01*
X171620814Y-64790609D01*
X171529534Y-64851602D01*
X171462857Y-64872480D01*
X171460643Y-64872500D01*
X165539357Y-64872500D01*
X165472318Y-64852815D01*
X165470466Y-64851602D01*
X165379185Y-64790609D01*
X165379172Y-64790602D01*
X165233501Y-64730264D01*
X165233489Y-64730261D01*
X165078845Y-64699500D01*
X165078842Y-64699500D01*
X164921158Y-64699500D01*
X164921155Y-64699500D01*
X164766510Y-64730261D01*
X164766498Y-64730264D01*
X164620827Y-64790602D01*
X164620814Y-64790609D01*
X164489711Y-64878210D01*
X164489707Y-64878213D01*
X164378213Y-64989707D01*
X164378210Y-64989711D01*
X164290609Y-65120814D01*
X164290602Y-65120827D01*
X164230264Y-65266498D01*
X164230261Y-65266510D01*
X164199500Y-65421153D01*
X98694234Y-65421153D01*
X98664727Y-65380540D01*
X98664723Y-65380535D01*
X98514464Y-65230276D01*
X98514459Y-65230272D01*
X98342557Y-65105379D01*
X98153217Y-65008904D01*
X97951128Y-64943242D01*
X97760000Y-64912969D01*
X97760000Y-65855854D01*
X97693343Y-65817370D01*
X97572535Y-65785000D01*
X97447465Y-65785000D01*
X97326657Y-65817370D01*
X97260000Y-65855854D01*
X97260000Y-64912969D01*
X97068872Y-64943242D01*
X97068869Y-64943242D01*
X96866782Y-65008904D01*
X96677442Y-65105379D01*
X96505540Y-65230272D01*
X96505535Y-65230276D01*
X96355276Y-65380535D01*
X96355272Y-65380540D01*
X96230379Y-65552442D01*
X96133904Y-65741782D01*
X96068242Y-65943870D01*
X96068242Y-65943873D01*
X96057769Y-66010000D01*
X97105854Y-66010000D01*
X97067370Y-66076657D01*
X97035000Y-66197465D01*
X97035000Y-66322535D01*
X97067370Y-66443343D01*
X97105854Y-66510000D01*
X96057769Y-66510000D01*
X96068242Y-66576126D01*
X96068242Y-66576129D01*
X96133904Y-66778217D01*
X96230379Y-66967557D01*
X96355272Y-67139459D01*
X96355276Y-67139464D01*
X96505535Y-67289723D01*
X96505540Y-67289727D01*
X96670218Y-67409372D01*
X96712884Y-67464701D01*
X96718863Y-67534315D01*
X96686258Y-67596110D01*
X96670218Y-67610008D01*
X96505214Y-67729890D01*
X96505209Y-67729894D01*
X96354890Y-67880213D01*
X96229951Y-68052179D01*
X96133444Y-68241585D01*
X96067753Y-68443760D01*
X96034500Y-68653713D01*
X92600500Y-68653713D01*
X92600500Y-61421153D01*
X156699500Y-61421153D01*
X156699500Y-61578846D01*
X156730261Y-61733489D01*
X156730264Y-61733501D01*
X156790602Y-61879172D01*
X156790609Y-61879185D01*
X156878210Y-62010288D01*
X156878213Y-62010292D01*
X156989707Y-62121786D01*
X156989711Y-62121789D01*
X157120814Y-62209390D01*
X157120827Y-62209397D01*
X157266498Y-62269735D01*
X157266503Y-62269737D01*
X157421153Y-62300499D01*
X157421156Y-62300500D01*
X157421158Y-62300500D01*
X157578844Y-62300500D01*
X157578845Y-62300499D01*
X157733497Y-62269737D01*
X157879179Y-62209394D01*
X158010289Y-62121789D01*
X158121789Y-62010289D01*
X158162933Y-61948713D01*
X175114500Y-61948713D01*
X175114500Y-62161286D01*
X175147753Y-62371239D01*
X175213444Y-62573414D01*
X175309951Y-62762820D01*
X175434890Y-62934786D01*
X175585213Y-63085109D01*
X175757182Y-63210050D01*
X175765946Y-63214516D01*
X175816742Y-63262491D01*
X175833536Y-63330312D01*
X175810998Y-63396447D01*
X175765946Y-63435484D01*
X175757182Y-63439949D01*
X175585213Y-63564890D01*
X175434890Y-63715213D01*
X175309951Y-63887179D01*
X175213444Y-64076585D01*
X175147753Y-64278760D01*
X175114500Y-64488713D01*
X175114500Y-64701286D01*
X175147753Y-64911239D01*
X175213444Y-65113414D01*
X175309951Y-65302820D01*
X175434890Y-65474786D01*
X175585213Y-65625109D01*
X175757182Y-65750050D01*
X175765946Y-65754516D01*
X175816742Y-65802491D01*
X175833536Y-65870312D01*
X175810998Y-65936447D01*
X175765946Y-65975484D01*
X175757182Y-65979949D01*
X175585213Y-66104890D01*
X175434890Y-66255213D01*
X175309951Y-66427179D01*
X175213444Y-66616585D01*
X175147753Y-66818760D01*
X175114500Y-67028713D01*
X175114500Y-67241286D01*
X175141142Y-67409500D01*
X175147754Y-67451243D01*
X175202855Y-67620827D01*
X175213444Y-67653414D01*
X175309951Y-67842820D01*
X175434890Y-68014786D01*
X175585213Y-68165109D01*
X175757182Y-68290050D01*
X175765946Y-68294516D01*
X175816742Y-68342491D01*
X175833536Y-68410312D01*
X175810998Y-68476447D01*
X175765946Y-68515484D01*
X175757182Y-68519949D01*
X175585213Y-68644890D01*
X175434890Y-68795213D01*
X175309951Y-68967179D01*
X175213444Y-69156585D01*
X175147753Y-69358760D01*
X175130480Y-69467820D01*
X175114500Y-69568713D01*
X175114500Y-69781287D01*
X175115897Y-69790105D01*
X175146824Y-69985376D01*
X175147754Y-69991243D01*
X175186444Y-70110319D01*
X175213444Y-70193414D01*
X175309951Y-70382820D01*
X175434890Y-70554786D01*
X175585213Y-70705109D01*
X175757182Y-70830050D01*
X175765946Y-70834516D01*
X175816742Y-70882491D01*
X175833536Y-70950312D01*
X175810998Y-71016447D01*
X175765946Y-71055484D01*
X175757182Y-71059949D01*
X175585213Y-71184890D01*
X175434890Y-71335213D01*
X175309951Y-71507179D01*
X175213444Y-71696585D01*
X175147753Y-71898760D01*
X175114500Y-72108713D01*
X175114500Y-72321286D01*
X175142708Y-72499388D01*
X175147754Y-72531243D01*
X175173447Y-72610319D01*
X175213444Y-72733414D01*
X175309951Y-72922820D01*
X175434890Y-73094786D01*
X175585213Y-73245109D01*
X175757182Y-73370050D01*
X175765946Y-73374516D01*
X175816742Y-73422491D01*
X175833536Y-73490312D01*
X175810998Y-73556447D01*
X175765946Y-73595484D01*
X175757182Y-73599949D01*
X175585213Y-73724890D01*
X175434890Y-73875213D01*
X175309951Y-74047179D01*
X175213444Y-74236585D01*
X175213443Y-74236587D01*
X175213443Y-74236588D01*
X175199853Y-74278414D01*
X175147753Y-74438760D01*
X175136424Y-74510289D01*
X175114500Y-74648713D01*
X175114500Y-74861287D01*
X175119196Y-74890937D01*
X175145179Y-75054989D01*
X175147754Y-75071243D01*
X175200471Y-75233489D01*
X175213444Y-75273414D01*
X175309951Y-75462820D01*
X175434890Y-75634786D01*
X175585213Y-75785109D01*
X175757179Y-75910048D01*
X175757181Y-75910049D01*
X175757184Y-75910051D01*
X175766493Y-75914794D01*
X175817290Y-75962766D01*
X175834087Y-76030587D01*
X175811552Y-76096722D01*
X175766502Y-76135762D01*
X175757443Y-76140378D01*
X175585540Y-76265272D01*
X175585535Y-76265276D01*
X175435276Y-76415535D01*
X175435272Y-76415540D01*
X175310379Y-76587442D01*
X175213904Y-76776782D01*
X175148242Y-76978870D01*
X175148242Y-76978873D01*
X175137769Y-77045000D01*
X176031988Y-77045000D01*
X175999075Y-77102007D01*
X175965000Y-77229174D01*
X175965000Y-77360826D01*
X175999075Y-77487993D01*
X176031988Y-77545000D01*
X175137769Y-77545000D01*
X175148242Y-77611126D01*
X175148242Y-77611129D01*
X175213904Y-77813217D01*
X175310379Y-78002557D01*
X175435272Y-78174459D01*
X175435276Y-78174464D01*
X175548946Y-78288134D01*
X175582431Y-78349457D01*
X175577447Y-78419149D01*
X175535575Y-78475082D01*
X175504598Y-78491997D01*
X175372671Y-78541202D01*
X175372664Y-78541206D01*
X175257455Y-78627452D01*
X175257452Y-78627455D01*
X175171206Y-78742664D01*
X175171202Y-78742671D01*
X175120908Y-78877517D01*
X175116217Y-78921153D01*
X175114501Y-78937123D01*
X175114500Y-78937135D01*
X175114500Y-80732870D01*
X175114501Y-80732876D01*
X175120908Y-80792483D01*
X175171202Y-80927328D01*
X175171206Y-80927335D01*
X175257452Y-81042544D01*
X175257455Y-81042547D01*
X175372664Y-81128793D01*
X175372671Y-81128797D01*
X175507517Y-81179091D01*
X175507516Y-81179091D01*
X175514444Y-81179835D01*
X175567127Y-81185500D01*
X177362872Y-81185499D01*
X177422483Y-81179091D01*
X177557331Y-81128796D01*
X177672546Y-81042546D01*
X177758796Y-80927331D01*
X177809091Y-80792483D01*
X177815500Y-80732873D01*
X177815499Y-78937128D01*
X177809091Y-78877517D01*
X177808655Y-78876349D01*
X177758797Y-78742671D01*
X177758793Y-78742664D01*
X177672547Y-78627455D01*
X177672544Y-78627452D01*
X177557335Y-78541206D01*
X177557328Y-78541202D01*
X177425401Y-78491997D01*
X177369467Y-78450126D01*
X177345050Y-78384662D01*
X177359902Y-78316389D01*
X177381053Y-78288133D01*
X177494728Y-78174458D01*
X177619620Y-78002557D01*
X177716095Y-77813217D01*
X177781757Y-77611129D01*
X177781757Y-77611126D01*
X177792231Y-77545000D01*
X176898012Y-77545000D01*
X176930925Y-77487993D01*
X176965000Y-77360826D01*
X176965000Y-77229174D01*
X176930925Y-77102007D01*
X176898012Y-77045000D01*
X177792231Y-77045000D01*
X177781757Y-76978873D01*
X177781757Y-76978870D01*
X177716095Y-76776782D01*
X177619620Y-76587442D01*
X177494727Y-76415540D01*
X177494723Y-76415535D01*
X177344464Y-76265276D01*
X177344459Y-76265272D01*
X177172555Y-76140377D01*
X177163500Y-76135763D01*
X177112706Y-76087788D01*
X177095912Y-76019966D01*
X177118451Y-75953832D01*
X177163508Y-75914793D01*
X177172816Y-75910051D01*
X177289128Y-75825546D01*
X177344786Y-75785109D01*
X177344788Y-75785106D01*
X177344792Y-75785104D01*
X177495104Y-75634792D01*
X177495106Y-75634788D01*
X177495109Y-75634786D01*
X177620048Y-75462820D01*
X177620047Y-75462820D01*
X177620051Y-75462816D01*
X177716557Y-75273412D01*
X177782246Y-75071243D01*
X177815500Y-74861287D01*
X177815500Y-74648713D01*
X177782246Y-74438757D01*
X177716557Y-74236588D01*
X177620051Y-74047184D01*
X177620049Y-74047181D01*
X177620048Y-74047179D01*
X177495109Y-73875213D01*
X177344786Y-73724890D01*
X177172820Y-73599951D01*
X177172115Y-73599591D01*
X177164054Y-73595485D01*
X177113259Y-73547512D01*
X177096463Y-73479692D01*
X177118999Y-73413556D01*
X177164054Y-73374515D01*
X177172816Y-73370051D01*
X177198209Y-73351602D01*
X177344786Y-73245109D01*
X177344788Y-73245106D01*
X177344792Y-73245104D01*
X177495104Y-73094792D01*
X177495106Y-73094788D01*
X177495109Y-73094786D01*
X177620048Y-72922820D01*
X177620047Y-72922820D01*
X177620051Y-72922816D01*
X177716557Y-72733412D01*
X177782246Y-72531243D01*
X177815500Y-72321287D01*
X177815500Y-72108713D01*
X177782246Y-71898757D01*
X177716557Y-71696588D01*
X177620051Y-71507184D01*
X177620049Y-71507181D01*
X177620048Y-71507179D01*
X177495109Y-71335213D01*
X177344786Y-71184890D01*
X177172820Y-71059951D01*
X177172115Y-71059591D01*
X177164054Y-71055485D01*
X177113259Y-71007512D01*
X177096463Y-70939692D01*
X177118999Y-70873556D01*
X177164054Y-70834515D01*
X177172816Y-70830051D01*
X177294580Y-70741585D01*
X177344786Y-70705109D01*
X177344788Y-70705106D01*
X177344792Y-70705104D01*
X177495104Y-70554792D01*
X177495106Y-70554788D01*
X177495109Y-70554786D01*
X177620048Y-70382820D01*
X177620047Y-70382820D01*
X177620051Y-70382816D01*
X177716557Y-70193412D01*
X177782246Y-69991243D01*
X177815500Y-69781287D01*
X177815500Y-69568713D01*
X177782246Y-69358757D01*
X177716557Y-69156588D01*
X177620051Y-68967184D01*
X177620049Y-68967181D01*
X177620048Y-68967179D01*
X177495109Y-68795213D01*
X177344786Y-68644890D01*
X177172820Y-68519951D01*
X177172115Y-68519591D01*
X177164054Y-68515485D01*
X177113259Y-68467512D01*
X177096463Y-68399692D01*
X177118999Y-68333556D01*
X177164054Y-68294515D01*
X177172816Y-68290051D01*
X177250651Y-68233501D01*
X177344786Y-68165109D01*
X177344788Y-68165106D01*
X177344792Y-68165104D01*
X177495104Y-68014792D01*
X177495106Y-68014788D01*
X177495109Y-68014786D01*
X177620048Y-67842820D01*
X177620047Y-67842820D01*
X177620051Y-67842816D01*
X177716557Y-67653412D01*
X177782246Y-67451243D01*
X177815500Y-67241287D01*
X177815500Y-67028713D01*
X177782246Y-66818757D01*
X177716557Y-66616588D01*
X177620051Y-66427184D01*
X177620049Y-66427181D01*
X177620048Y-66427179D01*
X177495109Y-66255213D01*
X177344786Y-66104890D01*
X177172820Y-65979951D01*
X177172115Y-65979591D01*
X177164054Y-65975485D01*
X177113259Y-65927512D01*
X177096463Y-65859692D01*
X177118999Y-65793556D01*
X177164054Y-65754515D01*
X177172816Y-65750051D01*
X177195612Y-65733489D01*
X177344786Y-65625109D01*
X177344788Y-65625106D01*
X177344792Y-65625104D01*
X177495104Y-65474792D01*
X177495106Y-65474788D01*
X177495109Y-65474786D01*
X177620048Y-65302820D01*
X177620047Y-65302820D01*
X177620051Y-65302816D01*
X177716557Y-65113412D01*
X177782246Y-64911243D01*
X177815500Y-64701287D01*
X177815500Y-64488713D01*
X177782246Y-64278757D01*
X177716557Y-64076588D01*
X177620051Y-63887184D01*
X177620049Y-63887181D01*
X177620048Y-63887179D01*
X177495109Y-63715213D01*
X177344786Y-63564890D01*
X177172820Y-63439951D01*
X177172115Y-63439591D01*
X177164054Y-63435485D01*
X177113259Y-63387512D01*
X177096463Y-63319692D01*
X177118999Y-63253556D01*
X177164054Y-63214515D01*
X177172816Y-63210051D01*
X177194789Y-63194086D01*
X177344786Y-63085109D01*
X177344788Y-63085106D01*
X177344792Y-63085104D01*
X177495104Y-62934792D01*
X177495106Y-62934788D01*
X177495109Y-62934786D01*
X177620048Y-62762820D01*
X177620047Y-62762820D01*
X177620051Y-62762816D01*
X177716557Y-62573412D01*
X177782246Y-62371243D01*
X177815500Y-62161287D01*
X177815500Y-61948713D01*
X177782246Y-61738757D01*
X177716557Y-61536588D01*
X177620051Y-61347184D01*
X177620049Y-61347181D01*
X177620048Y-61347179D01*
X177495109Y-61175213D01*
X177344786Y-61024890D01*
X177172820Y-60899951D01*
X176983414Y-60803444D01*
X176983413Y-60803443D01*
X176983412Y-60803443D01*
X176781243Y-60737754D01*
X176781241Y-60737753D01*
X176781240Y-60737753D01*
X176598707Y-60708843D01*
X176571287Y-60704500D01*
X176358713Y-60704500D01*
X176331293Y-60708843D01*
X176148760Y-60737753D01*
X175946585Y-60803444D01*
X175757179Y-60899951D01*
X175585213Y-61024890D01*
X175434890Y-61175213D01*
X175309951Y-61347179D01*
X175213444Y-61536585D01*
X175147753Y-61738760D01*
X175114500Y-61948713D01*
X158162933Y-61948713D01*
X158209394Y-61879179D01*
X158269737Y-61733497D01*
X158291156Y-61625812D01*
X158323539Y-61563906D01*
X158325034Y-61562383D01*
X160223600Y-59663819D01*
X160284923Y-59630334D01*
X160311281Y-59627500D01*
X161460643Y-59627500D01*
X161527682Y-59647185D01*
X161529534Y-59648398D01*
X161620814Y-59709390D01*
X161620827Y-59709397D01*
X161766498Y-59769735D01*
X161766503Y-59769737D01*
X161921153Y-59800499D01*
X161921156Y-59800500D01*
X161921158Y-59800500D01*
X162078844Y-59800500D01*
X162078845Y-59800499D01*
X162233497Y-59769737D01*
X162379179Y-59709394D01*
X162470466Y-59648398D01*
X162537143Y-59627520D01*
X162539357Y-59627500D01*
X163061804Y-59627500D01*
X163061805Y-59627499D01*
X163183035Y-59603386D01*
X163263784Y-59569937D01*
X163297233Y-59556083D01*
X163400008Y-59487411D01*
X163487411Y-59400008D01*
X166562328Y-56325089D01*
X166623649Y-56291606D01*
X166625648Y-56291189D01*
X166733497Y-56269737D01*
X166879179Y-56209394D01*
X167010289Y-56121789D01*
X167121789Y-56010289D01*
X167209394Y-55879179D01*
X167269737Y-55733497D01*
X167300500Y-55578842D01*
X167300500Y-55421158D01*
X167300500Y-55421155D01*
X167300499Y-55421153D01*
X167269738Y-55266510D01*
X167269738Y-55266508D01*
X167269737Y-55266503D01*
X167269735Y-55266498D01*
X167209397Y-55120827D01*
X167209390Y-55120814D01*
X167121789Y-54989711D01*
X167121786Y-54989707D01*
X167010292Y-54878213D01*
X167010288Y-54878210D01*
X166879185Y-54790609D01*
X166879172Y-54790602D01*
X166733501Y-54730264D01*
X166733489Y-54730261D01*
X166578845Y-54699500D01*
X166578842Y-54699500D01*
X166421158Y-54699500D01*
X166421155Y-54699500D01*
X166266510Y-54730261D01*
X166266498Y-54730264D01*
X166120827Y-54790602D01*
X166120814Y-54790609D01*
X165989711Y-54878210D01*
X165989707Y-54878213D01*
X165878213Y-54989707D01*
X165878210Y-54989711D01*
X165790609Y-55120814D01*
X165790602Y-55120827D01*
X165730264Y-55266498D01*
X165730261Y-55266508D01*
X165708843Y-55374183D01*
X165676458Y-55436094D01*
X165674907Y-55437672D01*
X162776400Y-58336181D01*
X162749472Y-58350884D01*
X162723654Y-58367477D01*
X162717453Y-58368368D01*
X162715077Y-58369666D01*
X162688719Y-58372500D01*
X162539357Y-58372500D01*
X162472318Y-58352815D01*
X162470466Y-58351602D01*
X162379185Y-58290609D01*
X162379172Y-58290602D01*
X162233501Y-58230264D01*
X162233489Y-58230261D01*
X162078845Y-58199500D01*
X162078842Y-58199500D01*
X161921158Y-58199500D01*
X161921155Y-58199500D01*
X161766510Y-58230261D01*
X161766498Y-58230264D01*
X161620827Y-58290602D01*
X161620814Y-58290609D01*
X161529534Y-58351602D01*
X161462857Y-58372480D01*
X161460643Y-58372500D01*
X159938192Y-58372500D01*
X159816972Y-58396612D01*
X159816964Y-58396614D01*
X159736215Y-58430062D01*
X159702766Y-58443917D01*
X159702764Y-58443918D01*
X159626728Y-58494724D01*
X159626728Y-58494725D01*
X159599989Y-58512590D01*
X157437672Y-60674907D01*
X157376349Y-60708392D01*
X157374183Y-60708843D01*
X157266508Y-60730261D01*
X157266498Y-60730264D01*
X157120827Y-60790602D01*
X157120814Y-60790609D01*
X156989711Y-60878210D01*
X156989707Y-60878213D01*
X156878213Y-60989707D01*
X156878210Y-60989711D01*
X156790609Y-61120814D01*
X156790602Y-61120827D01*
X156730264Y-61266498D01*
X156730261Y-61266510D01*
X156699500Y-61421153D01*
X92600500Y-61421153D01*
X92600500Y-45619983D01*
X97244500Y-45619983D01*
X97244500Y-46920001D01*
X97244501Y-46920018D01*
X97255000Y-47022796D01*
X97255001Y-47022799D01*
X97310185Y-47189331D01*
X97310187Y-47189336D01*
X97402289Y-47338657D01*
X97526344Y-47462712D01*
X97681120Y-47558178D01*
X97727845Y-47610126D01*
X97739068Y-47679088D01*
X97711224Y-47743171D01*
X97703706Y-47751398D01*
X97564889Y-47890215D01*
X97439951Y-48062179D01*
X97343444Y-48251585D01*
X97277753Y-48453760D01*
X97244500Y-48663713D01*
X97244500Y-48876287D01*
X97254534Y-48939644D01*
X97276581Y-49078842D01*
X97277754Y-49086243D01*
X97331647Y-49252109D01*
X97343444Y-49288414D01*
X97439951Y-49477820D01*
X97564890Y-49649786D01*
X97715209Y-49800105D01*
X97715214Y-49800109D01*
X97879793Y-49919682D01*
X97922459Y-49975011D01*
X97928438Y-50044625D01*
X97895833Y-50106420D01*
X97879793Y-50120318D01*
X97715214Y-50239890D01*
X97715209Y-50239894D01*
X97564890Y-50390213D01*
X97439951Y-50562179D01*
X97343444Y-50751585D01*
X97277753Y-50953760D01*
X97250502Y-51125815D01*
X97244500Y-51163713D01*
X97244500Y-51376287D01*
X97277754Y-51586243D01*
X97337375Y-51769738D01*
X97343444Y-51788414D01*
X97439951Y-51977820D01*
X97564890Y-52149786D01*
X97715209Y-52300105D01*
X97715214Y-52300109D01*
X97880218Y-52419991D01*
X97922884Y-52475320D01*
X97928863Y-52544934D01*
X97896258Y-52606729D01*
X97880218Y-52620627D01*
X97715540Y-52740272D01*
X97715535Y-52740276D01*
X97565276Y-52890535D01*
X97565272Y-52890540D01*
X97440379Y-53062442D01*
X97343904Y-53251782D01*
X97278242Y-53453870D01*
X97278242Y-53453873D01*
X97267769Y-53520000D01*
X98315854Y-53520000D01*
X98277370Y-53586657D01*
X98245000Y-53707465D01*
X98245000Y-53832535D01*
X98277370Y-53953343D01*
X98315854Y-54020000D01*
X97267769Y-54020000D01*
X97278242Y-54086126D01*
X97278242Y-54086129D01*
X97343904Y-54288217D01*
X97440379Y-54477557D01*
X97565272Y-54649459D01*
X97565276Y-54649464D01*
X97715535Y-54799723D01*
X97715540Y-54799727D01*
X97887442Y-54924620D01*
X98076782Y-55021095D01*
X98278872Y-55086757D01*
X98470000Y-55117029D01*
X98470000Y-54174145D01*
X98536657Y-54212630D01*
X98657465Y-54245000D01*
X98782535Y-54245000D01*
X98903343Y-54212630D01*
X98970000Y-54174145D01*
X98970000Y-55117028D01*
X99161127Y-55086757D01*
X99363217Y-55021095D01*
X99552557Y-54924620D01*
X99724459Y-54799727D01*
X99724464Y-54799723D01*
X99874723Y-54649464D01*
X99874727Y-54649459D01*
X99999620Y-54477557D01*
X100096095Y-54288217D01*
X100161757Y-54086129D01*
X100161757Y-54086126D01*
X100172231Y-54020000D01*
X99124146Y-54020000D01*
X99162630Y-53953343D01*
X99171255Y-53921153D01*
X147699500Y-53921153D01*
X147699500Y-54078846D01*
X147730261Y-54233489D01*
X147730264Y-54233501D01*
X147790602Y-54379172D01*
X147790609Y-54379185D01*
X147878210Y-54510288D01*
X147878213Y-54510292D01*
X147989707Y-54621786D01*
X147989711Y-54621789D01*
X148120814Y-54709390D01*
X148120827Y-54709397D01*
X148266498Y-54769735D01*
X148266503Y-54769737D01*
X148417252Y-54799723D01*
X148421153Y-54800499D01*
X148421156Y-54800500D01*
X148421158Y-54800500D01*
X148578844Y-54800500D01*
X148578845Y-54800499D01*
X148733497Y-54769737D01*
X148879179Y-54709394D01*
X148970466Y-54648398D01*
X149037143Y-54627520D01*
X149039357Y-54627500D01*
X151460643Y-54627500D01*
X151527682Y-54647185D01*
X151529534Y-54648398D01*
X151620814Y-54709390D01*
X151620827Y-54709397D01*
X151766498Y-54769735D01*
X151766503Y-54769737D01*
X151917252Y-54799723D01*
X151921153Y-54800499D01*
X151921156Y-54800500D01*
X151921158Y-54800500D01*
X152078844Y-54800500D01*
X152078845Y-54800499D01*
X152233497Y-54769737D01*
X152379179Y-54709394D01*
X152510289Y-54621789D01*
X152621789Y-54510289D01*
X152709394Y-54379179D01*
X152769737Y-54233497D01*
X152800500Y-54078842D01*
X152800500Y-53924500D01*
X152820185Y-53857461D01*
X152872989Y-53811706D01*
X152924500Y-53800500D01*
X153078844Y-53800500D01*
X153078845Y-53800499D01*
X153233497Y-53769737D01*
X153379179Y-53709394D01*
X153510289Y-53621789D01*
X153621789Y-53510289D01*
X153709394Y-53379179D01*
X153769737Y-53233497D01*
X153800500Y-53078842D01*
X153800500Y-52921158D01*
X153800500Y-52921155D01*
X153800499Y-52921153D01*
X153769738Y-52766510D01*
X153769737Y-52766503D01*
X153758872Y-52740272D01*
X153709397Y-52620827D01*
X153709390Y-52620814D01*
X153621789Y-52489711D01*
X153621786Y-52489707D01*
X153510292Y-52378213D01*
X153510288Y-52378210D01*
X153379185Y-52290609D01*
X153379172Y-52290602D01*
X153233501Y-52230264D01*
X153233489Y-52230261D01*
X153078845Y-52199500D01*
X153078842Y-52199500D01*
X152921158Y-52199500D01*
X152921155Y-52199500D01*
X152766510Y-52230261D01*
X152766498Y-52230264D01*
X152620827Y-52290602D01*
X152620814Y-52290609D01*
X152529534Y-52351602D01*
X152462857Y-52372480D01*
X152460643Y-52372500D01*
X150039357Y-52372500D01*
X149972318Y-52352815D01*
X149970466Y-52351602D01*
X149879185Y-52290609D01*
X149879172Y-52290602D01*
X149733501Y-52230264D01*
X149733489Y-52230261D01*
X149578845Y-52199500D01*
X149578842Y-52199500D01*
X149421158Y-52199500D01*
X149421155Y-52199500D01*
X149266510Y-52230261D01*
X149266498Y-52230264D01*
X149120827Y-52290602D01*
X149120814Y-52290609D01*
X148989711Y-52378210D01*
X148989707Y-52378213D01*
X148878213Y-52489707D01*
X148878210Y-52489711D01*
X148790609Y-52620814D01*
X148790602Y-52620827D01*
X148730264Y-52766498D01*
X148730261Y-52766510D01*
X148699500Y-52921153D01*
X148699500Y-53075500D01*
X148679815Y-53142539D01*
X148627011Y-53188294D01*
X148575500Y-53199500D01*
X148421155Y-53199500D01*
X148266510Y-53230261D01*
X148266498Y-53230264D01*
X148120827Y-53290602D01*
X148120814Y-53290609D01*
X147989711Y-53378210D01*
X147989707Y-53378213D01*
X147878213Y-53489707D01*
X147878210Y-53489711D01*
X147790609Y-53620814D01*
X147790602Y-53620827D01*
X147730264Y-53766498D01*
X147730261Y-53766510D01*
X147699500Y-53921153D01*
X99171255Y-53921153D01*
X99195000Y-53832535D01*
X99195000Y-53707465D01*
X99162630Y-53586657D01*
X99124146Y-53520000D01*
X100172231Y-53520000D01*
X100161757Y-53453873D01*
X100161757Y-53453870D01*
X100096095Y-53251782D01*
X99999620Y-53062442D01*
X99874727Y-52890540D01*
X99874723Y-52890535D01*
X99724464Y-52740276D01*
X99724459Y-52740272D01*
X99559781Y-52620627D01*
X99517115Y-52565297D01*
X99511136Y-52495684D01*
X99543741Y-52433889D01*
X99559776Y-52419994D01*
X99724792Y-52300104D01*
X99875104Y-52149792D01*
X99875106Y-52149788D01*
X99875109Y-52149786D01*
X100000048Y-51977820D01*
X100000047Y-51977820D01*
X100000051Y-51977816D01*
X100096557Y-51788412D01*
X100162246Y-51586243D01*
X100195500Y-51376287D01*
X100195500Y-51163713D01*
X100162246Y-50953757D01*
X100096557Y-50751588D01*
X100000051Y-50562184D01*
X100000049Y-50562181D01*
X100000048Y-50562179D01*
X99875109Y-50390213D01*
X99724792Y-50239896D01*
X99724784Y-50239890D01*
X99560204Y-50120316D01*
X99517540Y-50064989D01*
X99511561Y-49995376D01*
X99544166Y-49933580D01*
X99560199Y-49919686D01*
X99724792Y-49800104D01*
X99875104Y-49649792D01*
X99875106Y-49649788D01*
X99875109Y-49649786D01*
X100000048Y-49477820D01*
X100000047Y-49477820D01*
X100000051Y-49477816D01*
X100036260Y-49406752D01*
X146685099Y-49406752D01*
X146685099Y-49564445D01*
X146715860Y-49719088D01*
X146715863Y-49719100D01*
X146776201Y-49864771D01*
X146776208Y-49864784D01*
X146863809Y-49995887D01*
X146863812Y-49995891D01*
X146975306Y-50107385D01*
X146975310Y-50107388D01*
X147106413Y-50194989D01*
X147106426Y-50194996D01*
X147250441Y-50254648D01*
X147252102Y-50255336D01*
X147403288Y-50285409D01*
X147406752Y-50286098D01*
X147406755Y-50286099D01*
X147406757Y-50286099D01*
X147564443Y-50286099D01*
X147564444Y-50286098D01*
X147719096Y-50255336D01*
X147864778Y-50194993D01*
X147864783Y-50194989D01*
X147870145Y-50192124D01*
X147871320Y-50194323D01*
X147927543Y-50176690D01*
X147987552Y-50193122D01*
X147988454Y-50191435D01*
X147993825Y-50194306D01*
X148122970Y-50247799D01*
X148139503Y-50254647D01*
X148294153Y-50285409D01*
X148294156Y-50285410D01*
X148294158Y-50285410D01*
X148451844Y-50285410D01*
X148451845Y-50285409D01*
X148606497Y-50254647D01*
X148734794Y-50201505D01*
X148752172Y-50194307D01*
X148752172Y-50194306D01*
X148752179Y-50194304D01*
X148883289Y-50106699D01*
X148994789Y-49995199D01*
X149082394Y-49864089D01*
X149142737Y-49718407D01*
X149173500Y-49563752D01*
X149173500Y-49406068D01*
X149173500Y-49406065D01*
X149173499Y-49406063D01*
X149150097Y-49288414D01*
X149142737Y-49251413D01*
X149135313Y-49233489D01*
X149082397Y-49105737D01*
X149082390Y-49105724D01*
X149021398Y-49014443D01*
X149000520Y-48947765D01*
X149000500Y-48945552D01*
X149000500Y-48594983D01*
X151159500Y-48594983D01*
X151159500Y-50145001D01*
X151159501Y-50145018D01*
X151170000Y-50247796D01*
X151170001Y-50247799D01*
X151215894Y-50386294D01*
X151225186Y-50414334D01*
X151317288Y-50563656D01*
X151441344Y-50687712D01*
X151590666Y-50779814D01*
X151757203Y-50834999D01*
X151859991Y-50845500D01*
X153160008Y-50845499D01*
X153262797Y-50834999D01*
X153429334Y-50779814D01*
X153578656Y-50687712D01*
X153702712Y-50563656D01*
X153794814Y-50414334D01*
X153794814Y-50414331D01*
X153798178Y-50408879D01*
X153850126Y-50362154D01*
X153919088Y-50350931D01*
X153983170Y-50378774D01*
X153991398Y-50386294D01*
X154130213Y-50525109D01*
X154302179Y-50650048D01*
X154302181Y-50650049D01*
X154302184Y-50650051D01*
X154491588Y-50746557D01*
X154693757Y-50812246D01*
X154903713Y-50845500D01*
X154903714Y-50845500D01*
X155116286Y-50845500D01*
X155116287Y-50845500D01*
X155326243Y-50812246D01*
X155528412Y-50746557D01*
X155717816Y-50650051D01*
X155758058Y-50620814D01*
X155889786Y-50525109D01*
X155889788Y-50525106D01*
X155889792Y-50525104D01*
X156040104Y-50374792D01*
X156159683Y-50210204D01*
X156215011Y-50167540D01*
X156284624Y-50161561D01*
X156346420Y-50194166D01*
X156360313Y-50210199D01*
X156418729Y-50290602D01*
X156479896Y-50374792D01*
X156630213Y-50525109D01*
X156802179Y-50650048D01*
X156802181Y-50650049D01*
X156802184Y-50650051D01*
X156991588Y-50746557D01*
X157193757Y-50812246D01*
X157403713Y-50845500D01*
X157403714Y-50845500D01*
X157616286Y-50845500D01*
X157616287Y-50845500D01*
X157826243Y-50812246D01*
X158028412Y-50746557D01*
X158217816Y-50650051D01*
X158258058Y-50620814D01*
X158389786Y-50525109D01*
X158389788Y-50525106D01*
X158389792Y-50525104D01*
X158540104Y-50374792D01*
X158659683Y-50210204D01*
X158715011Y-50167540D01*
X158784624Y-50161561D01*
X158846420Y-50194166D01*
X158860313Y-50210199D01*
X158918729Y-50290602D01*
X158979896Y-50374792D01*
X159130213Y-50525109D01*
X159302179Y-50650048D01*
X159302181Y-50650049D01*
X159302184Y-50650051D01*
X159491588Y-50746557D01*
X159693757Y-50812246D01*
X159903713Y-50845500D01*
X159903714Y-50845500D01*
X160116286Y-50845500D01*
X160116287Y-50845500D01*
X160326243Y-50812246D01*
X160528412Y-50746557D01*
X160717816Y-50650051D01*
X160758058Y-50620814D01*
X160889786Y-50525109D01*
X160889788Y-50525106D01*
X160889792Y-50525104D01*
X161040104Y-50374792D01*
X161040106Y-50374788D01*
X161040109Y-50374786D01*
X161165048Y-50202820D01*
X161165047Y-50202820D01*
X161165051Y-50202816D01*
X161261557Y-50013412D01*
X161327246Y-49811243D01*
X161360500Y-49601287D01*
X161360500Y-49138713D01*
X161327246Y-48928757D01*
X161324775Y-48921153D01*
X163699500Y-48921153D01*
X163699500Y-49078846D01*
X163730261Y-49233489D01*
X163730264Y-49233501D01*
X163790602Y-49379172D01*
X163790609Y-49379185D01*
X163878210Y-49510288D01*
X163878213Y-49510292D01*
X163989707Y-49621786D01*
X163989711Y-49621789D01*
X164120814Y-49709390D01*
X164120827Y-49709397D01*
X164188961Y-49737618D01*
X164266503Y-49769737D01*
X164374185Y-49791156D01*
X164436092Y-49823539D01*
X164437672Y-49825091D01*
X165674907Y-51062326D01*
X165708392Y-51123649D01*
X165708843Y-51125815D01*
X165730261Y-51233491D01*
X165730264Y-51233501D01*
X165790602Y-51379172D01*
X165790609Y-51379185D01*
X165878210Y-51510288D01*
X165878213Y-51510292D01*
X165989707Y-51621786D01*
X165989711Y-51621789D01*
X166120814Y-51709390D01*
X166120827Y-51709397D01*
X166266498Y-51769735D01*
X166266503Y-51769737D01*
X166421153Y-51800499D01*
X166421156Y-51800500D01*
X166421158Y-51800500D01*
X166578844Y-51800500D01*
X166578845Y-51800499D01*
X166733497Y-51769737D01*
X166879179Y-51709394D01*
X167010289Y-51621789D01*
X167121789Y-51510289D01*
X167209394Y-51379179D01*
X167269737Y-51233497D01*
X167300500Y-51078842D01*
X167300500Y-50921158D01*
X167300500Y-50921155D01*
X167300499Y-50921153D01*
X167294765Y-50892328D01*
X167269737Y-50766503D01*
X167266001Y-50757483D01*
X167209397Y-50620827D01*
X167209390Y-50620814D01*
X167121789Y-50489711D01*
X167121786Y-50489707D01*
X167010292Y-50378213D01*
X167010288Y-50378210D01*
X166879185Y-50290609D01*
X166879172Y-50290602D01*
X166733501Y-50230264D01*
X166733491Y-50230261D01*
X166625815Y-50208843D01*
X166563904Y-50176458D01*
X166562326Y-50174907D01*
X165325091Y-48937672D01*
X165291606Y-48876349D01*
X165291183Y-48874323D01*
X165269737Y-48766503D01*
X165245365Y-48707664D01*
X165209397Y-48620827D01*
X165209390Y-48620814D01*
X165121789Y-48489711D01*
X165121786Y-48489707D01*
X165010292Y-48378213D01*
X165010288Y-48378210D01*
X164879185Y-48290609D01*
X164879172Y-48290602D01*
X164733501Y-48230264D01*
X164733489Y-48230261D01*
X164578845Y-48199500D01*
X164578842Y-48199500D01*
X164421158Y-48199500D01*
X164421155Y-48199500D01*
X164266510Y-48230261D01*
X164266498Y-48230264D01*
X164120827Y-48290602D01*
X164120814Y-48290609D01*
X163989711Y-48378210D01*
X163989707Y-48378213D01*
X163878213Y-48489707D01*
X163878210Y-48489711D01*
X163790609Y-48620814D01*
X163790602Y-48620827D01*
X163730264Y-48766498D01*
X163730261Y-48766510D01*
X163699500Y-48921153D01*
X161324775Y-48921153D01*
X161261557Y-48726588D01*
X161165051Y-48537184D01*
X161165049Y-48537181D01*
X161165048Y-48537179D01*
X161040109Y-48365213D01*
X160889786Y-48214890D01*
X160717820Y-48089951D01*
X160528414Y-47993444D01*
X160528413Y-47993443D01*
X160528412Y-47993443D01*
X160326243Y-47927754D01*
X160326241Y-47927753D01*
X160326240Y-47927753D01*
X160164957Y-47902208D01*
X160116287Y-47894500D01*
X159903713Y-47894500D01*
X159855042Y-47902208D01*
X159693760Y-47927753D01*
X159491585Y-47993444D01*
X159302179Y-48089951D01*
X159130213Y-48214890D01*
X158979894Y-48365209D01*
X158979890Y-48365214D01*
X158860318Y-48529793D01*
X158804989Y-48572459D01*
X158735375Y-48578438D01*
X158673580Y-48545833D01*
X158659682Y-48529793D01*
X158540109Y-48365214D01*
X158540105Y-48365209D01*
X158389786Y-48214890D01*
X158217820Y-48089951D01*
X158028414Y-47993444D01*
X158028413Y-47993443D01*
X158028412Y-47993443D01*
X157826243Y-47927754D01*
X157826241Y-47927753D01*
X157826240Y-47927753D01*
X157664957Y-47902208D01*
X157616287Y-47894500D01*
X157403713Y-47894500D01*
X157355042Y-47902208D01*
X157193760Y-47927753D01*
X156991585Y-47993444D01*
X156802179Y-48089951D01*
X156630213Y-48214890D01*
X156479894Y-48365209D01*
X156479890Y-48365214D01*
X156360318Y-48529793D01*
X156304989Y-48572459D01*
X156235375Y-48578438D01*
X156173580Y-48545833D01*
X156159682Y-48529793D01*
X156040109Y-48365214D01*
X156040105Y-48365209D01*
X155889786Y-48214890D01*
X155717820Y-48089951D01*
X155528414Y-47993444D01*
X155528413Y-47993443D01*
X155528412Y-47993443D01*
X155326243Y-47927754D01*
X155326241Y-47927753D01*
X155326240Y-47927753D01*
X155164957Y-47902208D01*
X155116287Y-47894500D01*
X154903713Y-47894500D01*
X154855042Y-47902208D01*
X154693760Y-47927753D01*
X154491585Y-47993444D01*
X154302179Y-48089951D01*
X154130215Y-48214889D01*
X153991398Y-48353706D01*
X153930075Y-48387190D01*
X153860383Y-48382206D01*
X153804450Y-48340334D01*
X153798178Y-48331120D01*
X153702712Y-48176344D01*
X153578657Y-48052289D01*
X153578656Y-48052288D01*
X153441711Y-47967820D01*
X153429336Y-47960187D01*
X153429331Y-47960185D01*
X153427862Y-47959698D01*
X153262797Y-47905001D01*
X153262795Y-47905000D01*
X153160010Y-47894500D01*
X151859998Y-47894500D01*
X151859981Y-47894501D01*
X151757203Y-47905000D01*
X151757200Y-47905001D01*
X151590668Y-47960185D01*
X151590663Y-47960187D01*
X151441342Y-48052289D01*
X151317289Y-48176342D01*
X151225187Y-48325663D01*
X151225185Y-48325668D01*
X151206450Y-48382206D01*
X151170001Y-48492203D01*
X151170001Y-48492204D01*
X151170000Y-48492204D01*
X151159500Y-48594983D01*
X149000500Y-48594983D01*
X149000500Y-46438280D01*
X149020185Y-46371241D01*
X149036814Y-46350604D01*
X150252159Y-45135259D01*
X164349500Y-45135259D01*
X164349500Y-45364742D01*
X164369573Y-45517200D01*
X164379452Y-45592239D01*
X164387112Y-45620827D01*
X164438842Y-45813888D01*
X164526650Y-46025877D01*
X164526657Y-46025891D01*
X164641392Y-46224618D01*
X164781081Y-46406662D01*
X164781089Y-46406671D01*
X164943330Y-46568912D01*
X164943338Y-46568919D01*
X165125382Y-46708608D01*
X165125385Y-46708609D01*
X165125388Y-46708612D01*
X165324112Y-46823345D01*
X165324117Y-46823347D01*
X165324123Y-46823350D01*
X165415480Y-46861191D01*
X165536113Y-46911159D01*
X165757762Y-46970549D01*
X165985266Y-47000501D01*
X165985273Y-47000501D01*
X166214727Y-47000501D01*
X166214734Y-47000501D01*
X166442238Y-46970549D01*
X166663887Y-46911159D01*
X166875888Y-46823345D01*
X167074612Y-46708612D01*
X167256661Y-46568920D01*
X167256665Y-46568915D01*
X167256670Y-46568912D01*
X167418911Y-46406671D01*
X167418914Y-46406666D01*
X167418919Y-46406662D01*
X167558611Y-46224613D01*
X167673344Y-46025889D01*
X167761158Y-45813888D01*
X167820548Y-45592239D01*
X167850500Y-45364735D01*
X167850500Y-45135267D01*
X167820548Y-44907763D01*
X167761158Y-44686114D01*
X167697642Y-44532774D01*
X167673349Y-44474124D01*
X167673346Y-44474118D01*
X167673344Y-44474113D01*
X167558611Y-44275389D01*
X167558608Y-44275386D01*
X167558607Y-44275383D01*
X167418918Y-44093339D01*
X167418911Y-44093331D01*
X167256670Y-43931090D01*
X167256661Y-43931082D01*
X167074617Y-43791393D01*
X166875890Y-43676658D01*
X166875876Y-43676651D01*
X166663887Y-43588843D01*
X166442238Y-43529453D01*
X166404215Y-43524447D01*
X166214741Y-43499501D01*
X166214734Y-43499501D01*
X165985266Y-43499501D01*
X165985258Y-43499501D01*
X165768715Y-43528010D01*
X165757762Y-43529453D01*
X165664076Y-43554555D01*
X165536112Y-43588843D01*
X165324123Y-43676651D01*
X165324109Y-43676658D01*
X165125382Y-43791393D01*
X164943338Y-43931082D01*
X164781081Y-44093339D01*
X164641392Y-44275383D01*
X164526657Y-44474110D01*
X164526650Y-44474124D01*
X164438842Y-44686113D01*
X164379453Y-44907760D01*
X164379451Y-44907771D01*
X164349500Y-45135259D01*
X150252159Y-45135259D01*
X152062328Y-43325089D01*
X152123649Y-43291606D01*
X152125648Y-43291189D01*
X152233497Y-43269737D01*
X152379179Y-43209394D01*
X152510289Y-43121789D01*
X152621789Y-43010289D01*
X152709394Y-42879179D01*
X152769737Y-42733497D01*
X152800500Y-42578842D01*
X152800500Y-42421158D01*
X152800500Y-42421155D01*
X152800499Y-42421153D01*
X152769738Y-42266510D01*
X152769738Y-42266508D01*
X152769737Y-42266503D01*
X152709394Y-42120821D01*
X152709392Y-42120818D01*
X152709390Y-42120814D01*
X152621789Y-41989711D01*
X152621786Y-41989707D01*
X152510292Y-41878213D01*
X152510288Y-41878210D01*
X152379185Y-41790609D01*
X152379172Y-41790602D01*
X152233501Y-41730264D01*
X152233489Y-41730261D01*
X152078845Y-41699500D01*
X152078842Y-41699500D01*
X151921158Y-41699500D01*
X151921155Y-41699500D01*
X151766510Y-41730261D01*
X151766498Y-41730264D01*
X151620827Y-41790602D01*
X151620814Y-41790609D01*
X151489711Y-41878210D01*
X151489707Y-41878213D01*
X151378213Y-41989707D01*
X151378210Y-41989711D01*
X151290609Y-42120814D01*
X151290602Y-42120827D01*
X151230264Y-42266498D01*
X151230261Y-42266508D01*
X151208843Y-42374183D01*
X151176458Y-42436094D01*
X151174907Y-42437672D01*
X150955306Y-42657273D01*
X150893983Y-42690758D01*
X150824291Y-42685774D01*
X150798734Y-42672694D01*
X150685829Y-42597253D01*
X150685816Y-42597246D01*
X150540145Y-42536908D01*
X150540133Y-42536905D01*
X150385489Y-42506144D01*
X150385486Y-42506144D01*
X150227802Y-42506144D01*
X150227799Y-42506144D01*
X150073154Y-42536905D01*
X150073142Y-42536908D01*
X149927471Y-42597246D01*
X149927458Y-42597253D01*
X149796355Y-42684854D01*
X149796351Y-42684857D01*
X149684857Y-42796351D01*
X149684854Y-42796355D01*
X149597253Y-42927458D01*
X149597246Y-42927471D01*
X149536908Y-43073142D01*
X149536905Y-43073152D01*
X149515487Y-43180827D01*
X149483102Y-43242738D01*
X149481551Y-43244316D01*
X147682342Y-45043527D01*
X147085591Y-45640278D01*
X147041888Y-45683981D01*
X146998185Y-45727683D01*
X146998184Y-45727685D01*
X146928832Y-45831478D01*
X146927185Y-45836082D01*
X146882213Y-45944653D01*
X146882211Y-45944661D01*
X146869524Y-46008442D01*
X146869525Y-46008443D01*
X146858099Y-46065887D01*
X146858099Y-48946241D01*
X146838414Y-49013280D01*
X146837201Y-49015132D01*
X146776208Y-49106413D01*
X146776201Y-49106426D01*
X146715863Y-49252097D01*
X146715860Y-49252109D01*
X146685099Y-49406752D01*
X100036260Y-49406752D01*
X100096557Y-49288412D01*
X100162246Y-49086243D01*
X100195500Y-48876287D01*
X100195500Y-48663713D01*
X100162246Y-48453757D01*
X100096557Y-48251588D01*
X100000051Y-48062184D01*
X100000049Y-48062181D01*
X100000048Y-48062179D01*
X99875109Y-47890213D01*
X99736294Y-47751398D01*
X99702809Y-47690075D01*
X99707793Y-47620383D01*
X99749665Y-47564450D01*
X99758879Y-47558178D01*
X99764331Y-47554814D01*
X99764334Y-47554814D01*
X99913656Y-47462712D01*
X100037712Y-47338656D01*
X100129814Y-47189334D01*
X100184999Y-47022797D01*
X100195500Y-46920009D01*
X100195499Y-45619992D01*
X100184999Y-45517203D01*
X100129814Y-45350666D01*
X100037712Y-45201344D01*
X99971627Y-45135259D01*
X106349500Y-45135259D01*
X106349500Y-45364742D01*
X106369573Y-45517200D01*
X106379452Y-45592239D01*
X106387112Y-45620827D01*
X106438842Y-45813888D01*
X106526650Y-46025877D01*
X106526657Y-46025891D01*
X106641392Y-46224618D01*
X106781081Y-46406662D01*
X106781089Y-46406671D01*
X106943330Y-46568912D01*
X106943338Y-46568919D01*
X107125382Y-46708608D01*
X107125385Y-46708609D01*
X107125388Y-46708612D01*
X107324112Y-46823345D01*
X107324117Y-46823347D01*
X107324123Y-46823350D01*
X107415480Y-46861191D01*
X107536113Y-46911159D01*
X107757762Y-46970549D01*
X107985266Y-47000501D01*
X107985273Y-47000501D01*
X108214727Y-47000501D01*
X108214734Y-47000501D01*
X108442238Y-46970549D01*
X108663887Y-46911159D01*
X108875888Y-46823345D01*
X109074612Y-46708612D01*
X109256661Y-46568920D01*
X109256665Y-46568915D01*
X109256670Y-46568912D01*
X109418911Y-46406671D01*
X109418914Y-46406666D01*
X109418919Y-46406662D01*
X109558611Y-46224613D01*
X109673344Y-46025889D01*
X109761158Y-45813888D01*
X109820548Y-45592239D01*
X109850500Y-45364735D01*
X109850500Y-45135267D01*
X109820548Y-44907763D01*
X109761158Y-44686114D01*
X109697642Y-44532774D01*
X109673349Y-44474124D01*
X109673346Y-44474118D01*
X109673344Y-44474113D01*
X109558611Y-44275389D01*
X109558608Y-44275386D01*
X109558607Y-44275383D01*
X109418918Y-44093339D01*
X109418911Y-44093331D01*
X109256670Y-43931090D01*
X109256661Y-43931082D01*
X109074617Y-43791393D01*
X108875890Y-43676658D01*
X108875876Y-43676651D01*
X108663887Y-43588843D01*
X108442238Y-43529453D01*
X108404215Y-43524447D01*
X108214741Y-43499501D01*
X108214734Y-43499501D01*
X107985266Y-43499501D01*
X107985258Y-43499501D01*
X107768715Y-43528010D01*
X107757762Y-43529453D01*
X107664076Y-43554555D01*
X107536112Y-43588843D01*
X107324123Y-43676651D01*
X107324109Y-43676658D01*
X107125382Y-43791393D01*
X106943338Y-43931082D01*
X106781081Y-44093339D01*
X106641392Y-44275383D01*
X106526657Y-44474110D01*
X106526650Y-44474124D01*
X106438842Y-44686113D01*
X106379453Y-44907760D01*
X106379451Y-44907771D01*
X106349500Y-45135259D01*
X99971627Y-45135259D01*
X99913656Y-45077288D01*
X99764334Y-44985186D01*
X99597797Y-44930001D01*
X99597795Y-44930000D01*
X99495010Y-44919500D01*
X97944998Y-44919500D01*
X97944981Y-44919501D01*
X97842203Y-44930000D01*
X97842200Y-44930001D01*
X97675668Y-44985185D01*
X97675663Y-44985187D01*
X97526342Y-45077289D01*
X97402289Y-45201342D01*
X97310187Y-45350663D01*
X97310185Y-45350668D01*
X97301058Y-45378211D01*
X97255001Y-45517203D01*
X97255001Y-45517204D01*
X97255000Y-45517204D01*
X97244500Y-45619983D01*
X92600500Y-45619983D01*
X92600500Y-39142135D01*
X114809500Y-39142135D01*
X114809500Y-40937870D01*
X114809501Y-40937876D01*
X114815908Y-40997483D01*
X114866202Y-41132328D01*
X114866206Y-41132335D01*
X114952452Y-41247544D01*
X114952455Y-41247547D01*
X115067664Y-41333793D01*
X115067671Y-41333797D01*
X115202517Y-41384091D01*
X115202516Y-41384091D01*
X115209444Y-41384835D01*
X115262127Y-41390500D01*
X117057872Y-41390499D01*
X117117483Y-41384091D01*
X117252331Y-41333796D01*
X117367546Y-41247546D01*
X117453796Y-41132331D01*
X117502810Y-41000916D01*
X117544681Y-40944984D01*
X117610145Y-40920566D01*
X117678418Y-40935417D01*
X117706673Y-40956569D01*
X117820208Y-41070104D01*
X117992184Y-41195051D01*
X117992188Y-41195053D01*
X117992195Y-41195057D01*
X118004790Y-41201474D01*
X118055588Y-41249446D01*
X118072500Y-41311961D01*
X118072500Y-45256613D01*
X118052815Y-45323652D01*
X118017392Y-45359715D01*
X117989707Y-45378213D01*
X117878213Y-45489707D01*
X117878210Y-45489711D01*
X117790609Y-45620814D01*
X117790602Y-45620827D01*
X117730264Y-45766498D01*
X117730261Y-45766510D01*
X117699500Y-45921153D01*
X117699500Y-46078846D01*
X117730261Y-46233489D01*
X117730264Y-46233501D01*
X117790602Y-46379172D01*
X117790609Y-46379185D01*
X117878210Y-46510288D01*
X117878213Y-46510292D01*
X117989707Y-46621786D01*
X117989711Y-46621789D01*
X118120814Y-46709390D01*
X118120827Y-46709397D01*
X118266498Y-46769735D01*
X118266503Y-46769737D01*
X118421153Y-46800499D01*
X118421156Y-46800500D01*
X118421158Y-46800500D01*
X118578844Y-46800500D01*
X118578845Y-46800499D01*
X118733497Y-46769737D01*
X118879179Y-46709394D01*
X119010289Y-46621789D01*
X119121789Y-46510289D01*
X119209394Y-46379179D01*
X119269737Y-46233497D01*
X119300500Y-46078842D01*
X119300500Y-46009756D01*
X119302883Y-45985565D01*
X119327499Y-45861807D01*
X119327500Y-45861804D01*
X119327500Y-41311961D01*
X119347185Y-41244922D01*
X119395210Y-41201474D01*
X119407804Y-41195057D01*
X119407816Y-41195051D01*
X119579792Y-41070104D01*
X119730104Y-40919792D01*
X119730106Y-40919788D01*
X119730109Y-40919786D01*
X119817695Y-40799232D01*
X119855051Y-40747816D01*
X119859793Y-40738508D01*
X119907763Y-40687711D01*
X119975583Y-40670911D01*
X120041719Y-40693445D01*
X120080763Y-40738500D01*
X120085377Y-40747555D01*
X120210272Y-40919459D01*
X120210276Y-40919464D01*
X120360535Y-41069723D01*
X120360540Y-41069727D01*
X120532442Y-41194620D01*
X120721782Y-41291095D01*
X120923871Y-41356757D01*
X120990000Y-41367231D01*
X120990000Y-40473012D01*
X121047007Y-40505925D01*
X121174174Y-40540000D01*
X121305826Y-40540000D01*
X121432993Y-40505925D01*
X121490000Y-40473012D01*
X121490000Y-41367230D01*
X121556126Y-41356757D01*
X121556129Y-41356757D01*
X121758217Y-41291095D01*
X121947557Y-41194620D01*
X122119459Y-41069727D01*
X122119464Y-41069723D01*
X122269723Y-40919464D01*
X122269727Y-40919459D01*
X122394620Y-40747558D01*
X122399232Y-40738507D01*
X122447205Y-40687709D01*
X122515025Y-40670912D01*
X122581161Y-40693447D01*
X122620204Y-40738504D01*
X122624949Y-40747817D01*
X122749890Y-40919786D01*
X122900213Y-41070109D01*
X123072179Y-41195048D01*
X123072181Y-41195049D01*
X123072184Y-41195051D01*
X123261588Y-41291557D01*
X123463757Y-41357246D01*
X123673713Y-41390500D01*
X123673714Y-41390500D01*
X123886286Y-41390500D01*
X123886287Y-41390500D01*
X124096243Y-41357246D01*
X124298412Y-41291557D01*
X124487816Y-41195051D01*
X124574138Y-41132335D01*
X124659786Y-41070109D01*
X124659788Y-41070106D01*
X124659792Y-41070104D01*
X124810104Y-40919792D01*
X124810106Y-40919788D01*
X124810109Y-40919786D01*
X124935048Y-40747820D01*
X124935047Y-40747820D01*
X124935051Y-40747816D01*
X125031557Y-40558412D01*
X125097246Y-40356243D01*
X125130500Y-40146287D01*
X125130500Y-39933713D01*
X125097246Y-39723757D01*
X125031557Y-39521588D01*
X124935051Y-39332184D01*
X124935049Y-39332181D01*
X124935048Y-39332179D01*
X124810109Y-39160213D01*
X124659786Y-39009890D01*
X124487820Y-38884951D01*
X124298414Y-38788444D01*
X124298413Y-38788443D01*
X124298412Y-38788443D01*
X124096243Y-38722754D01*
X124096241Y-38722753D01*
X124096240Y-38722753D01*
X123934957Y-38697208D01*
X123886287Y-38689500D01*
X123673713Y-38689500D01*
X123625042Y-38697208D01*
X123463760Y-38722753D01*
X123261585Y-38788444D01*
X123072179Y-38884951D01*
X122900213Y-39009890D01*
X122749890Y-39160213D01*
X122624949Y-39332182D01*
X122620202Y-39341499D01*
X122572227Y-39392293D01*
X122504405Y-39409087D01*
X122438271Y-39386548D01*
X122399234Y-39341495D01*
X122394622Y-39332444D01*
X122269727Y-39160540D01*
X122269723Y-39160535D01*
X122119464Y-39010276D01*
X122119459Y-39010272D01*
X121947557Y-38885379D01*
X121758215Y-38788903D01*
X121556124Y-38723241D01*
X121490000Y-38712768D01*
X121490000Y-39606988D01*
X121432993Y-39574075D01*
X121305826Y-39540000D01*
X121174174Y-39540000D01*
X121047007Y-39574075D01*
X120990000Y-39606988D01*
X120990000Y-38712768D01*
X120989999Y-38712768D01*
X120923875Y-38723241D01*
X120721784Y-38788903D01*
X120532442Y-38885379D01*
X120360540Y-39010272D01*
X120360535Y-39010276D01*
X120210276Y-39160535D01*
X120210272Y-39160540D01*
X120085378Y-39332443D01*
X120080762Y-39341502D01*
X120032784Y-39392295D01*
X119964963Y-39409087D01*
X119898829Y-39386546D01*
X119859794Y-39341493D01*
X119855051Y-39332184D01*
X119855049Y-39332181D01*
X119855048Y-39332179D01*
X119730109Y-39160213D01*
X119579786Y-39009890D01*
X119407820Y-38884951D01*
X119218414Y-38788444D01*
X119218413Y-38788443D01*
X119218412Y-38788443D01*
X119016243Y-38722754D01*
X119016241Y-38722753D01*
X119016240Y-38722753D01*
X118854957Y-38697208D01*
X118806287Y-38689500D01*
X118593713Y-38689500D01*
X118545042Y-38697208D01*
X118383760Y-38722753D01*
X118181585Y-38788444D01*
X117992179Y-38884951D01*
X117820215Y-39009889D01*
X117706673Y-39123431D01*
X117645350Y-39156915D01*
X117575658Y-39151931D01*
X117519725Y-39110059D01*
X117502810Y-39079082D01*
X117453797Y-38947671D01*
X117453793Y-38947664D01*
X117367547Y-38832455D01*
X117367544Y-38832452D01*
X117252335Y-38746206D01*
X117252328Y-38746202D01*
X117117482Y-38695908D01*
X117117483Y-38695908D01*
X117057883Y-38689501D01*
X117057881Y-38689500D01*
X117057873Y-38689500D01*
X117057864Y-38689500D01*
X115262129Y-38689500D01*
X115262123Y-38689501D01*
X115202516Y-38695908D01*
X115067671Y-38746202D01*
X115067664Y-38746206D01*
X114952455Y-38832452D01*
X114952452Y-38832455D01*
X114866206Y-38947664D01*
X114866202Y-38947671D01*
X114815908Y-39082517D01*
X114809501Y-39142116D01*
X114809500Y-39142135D01*
X92600500Y-39142135D01*
X92600500Y-34373920D01*
X135429499Y-34373920D01*
X135458340Y-34518907D01*
X135458343Y-34518917D01*
X135514912Y-34655488D01*
X135514919Y-34655501D01*
X135597048Y-34778415D01*
X135597051Y-34778419D01*
X135701580Y-34882948D01*
X135701584Y-34882951D01*
X135824498Y-34965080D01*
X135824511Y-34965087D01*
X135961082Y-35021656D01*
X135961087Y-35021658D01*
X135961091Y-35021658D01*
X135961092Y-35021659D01*
X136106079Y-35050500D01*
X136106082Y-35050500D01*
X136253920Y-35050500D01*
X136351462Y-35031096D01*
X136398913Y-35021658D01*
X136535495Y-34965084D01*
X136658416Y-34882951D01*
X136762951Y-34778416D01*
X136845084Y-34655495D01*
X136901658Y-34518913D01*
X136930500Y-34373920D01*
X139829499Y-34373920D01*
X139858340Y-34518907D01*
X139858343Y-34518917D01*
X139914912Y-34655488D01*
X139914919Y-34655501D01*
X139997048Y-34778415D01*
X139997051Y-34778419D01*
X140101580Y-34882948D01*
X140101584Y-34882951D01*
X140224498Y-34965080D01*
X140224511Y-34965087D01*
X140361082Y-35021656D01*
X140361087Y-35021658D01*
X140361091Y-35021658D01*
X140361092Y-35021659D01*
X140506079Y-35050500D01*
X140506082Y-35050500D01*
X140653920Y-35050500D01*
X140751462Y-35031096D01*
X140798913Y-35021658D01*
X140935495Y-34965084D01*
X141058416Y-34882951D01*
X141162951Y-34778416D01*
X141245084Y-34655495D01*
X141301658Y-34518913D01*
X141309509Y-34479443D01*
X141314627Y-34453713D01*
X177149500Y-34453713D01*
X177149500Y-34666286D01*
X177167259Y-34778416D01*
X177182754Y-34876243D01*
X177230002Y-35021658D01*
X177248444Y-35078414D01*
X177344951Y-35267820D01*
X177469890Y-35439786D01*
X177620213Y-35590109D01*
X177792182Y-35715050D01*
X177800946Y-35719516D01*
X177851742Y-35767491D01*
X177868536Y-35835312D01*
X177845998Y-35901447D01*
X177800946Y-35940484D01*
X177792182Y-35944949D01*
X177620213Y-36069890D01*
X177469890Y-36220213D01*
X177344951Y-36392179D01*
X177248444Y-36581585D01*
X177182753Y-36783760D01*
X177149500Y-36993713D01*
X177149500Y-37206286D01*
X177182753Y-37416239D01*
X177248444Y-37618414D01*
X177344951Y-37807820D01*
X177469890Y-37979786D01*
X177620213Y-38130109D01*
X177792179Y-38255048D01*
X177792181Y-38255049D01*
X177792184Y-38255051D01*
X177801493Y-38259794D01*
X177852290Y-38307766D01*
X177869087Y-38375587D01*
X177846552Y-38441722D01*
X177801502Y-38480762D01*
X177792443Y-38485378D01*
X177620540Y-38610272D01*
X177620535Y-38610276D01*
X177470276Y-38760535D01*
X177470272Y-38760540D01*
X177345379Y-38932442D01*
X177248904Y-39121782D01*
X177183242Y-39323870D01*
X177183242Y-39323873D01*
X177172769Y-39390000D01*
X178066988Y-39390000D01*
X178034075Y-39447007D01*
X178000000Y-39574174D01*
X178000000Y-39705826D01*
X178034075Y-39832993D01*
X178066988Y-39890000D01*
X177172769Y-39890000D01*
X177183242Y-39956126D01*
X177183242Y-39956129D01*
X177248904Y-40158217D01*
X177345379Y-40347557D01*
X177470272Y-40519459D01*
X177470276Y-40519464D01*
X177620535Y-40669723D01*
X177620540Y-40669727D01*
X177792444Y-40794622D01*
X177801495Y-40799234D01*
X177852292Y-40847208D01*
X177869087Y-40915029D01*
X177846550Y-40981164D01*
X177801499Y-41020202D01*
X177792182Y-41024949D01*
X177620213Y-41149890D01*
X177469890Y-41300213D01*
X177344951Y-41472179D01*
X177248444Y-41661585D01*
X177182753Y-41863760D01*
X177149500Y-42073713D01*
X177149500Y-42286286D01*
X177170861Y-42421158D01*
X177182754Y-42496243D01*
X177215574Y-42597253D01*
X177248444Y-42698414D01*
X177344951Y-42887820D01*
X177469890Y-43059786D01*
X177620213Y-43210109D01*
X177792182Y-43335050D01*
X177800946Y-43339516D01*
X177851742Y-43387491D01*
X177868536Y-43455312D01*
X177845998Y-43521447D01*
X177800946Y-43560484D01*
X177792182Y-43564949D01*
X177620213Y-43689890D01*
X177469890Y-43840213D01*
X177344951Y-44012179D01*
X177248444Y-44201585D01*
X177182753Y-44403760D01*
X177149500Y-44613713D01*
X177149500Y-44826286D01*
X177182150Y-45032433D01*
X177182754Y-45036243D01*
X177236398Y-45201342D01*
X177248444Y-45238414D01*
X177344951Y-45427820D01*
X177469890Y-45599786D01*
X177620213Y-45750109D01*
X177792182Y-45875050D01*
X177800946Y-45879516D01*
X177851742Y-45927491D01*
X177868536Y-45995312D01*
X177845998Y-46061447D01*
X177800946Y-46100484D01*
X177792182Y-46104949D01*
X177620213Y-46229890D01*
X177469890Y-46380213D01*
X177344951Y-46552179D01*
X177248444Y-46741585D01*
X177182753Y-46943760D01*
X177149500Y-47153713D01*
X177149500Y-47366286D01*
X177179892Y-47558178D01*
X177182754Y-47576243D01*
X177236992Y-47743171D01*
X177248444Y-47778414D01*
X177344951Y-47967820D01*
X177469890Y-48139786D01*
X177583430Y-48253326D01*
X177616915Y-48314649D01*
X177611931Y-48384341D01*
X177570059Y-48440274D01*
X177539083Y-48457189D01*
X177407669Y-48506203D01*
X177407664Y-48506206D01*
X177292455Y-48592452D01*
X177292452Y-48592455D01*
X177206206Y-48707664D01*
X177206202Y-48707671D01*
X177155908Y-48842517D01*
X177149501Y-48902116D01*
X177149501Y-48902123D01*
X177149500Y-48902135D01*
X177149500Y-50697870D01*
X177149501Y-50697876D01*
X177155908Y-50757483D01*
X177206202Y-50892328D01*
X177206206Y-50892335D01*
X177292452Y-51007544D01*
X177292455Y-51007547D01*
X177407664Y-51093793D01*
X177407671Y-51093797D01*
X177542517Y-51144091D01*
X177542516Y-51144091D01*
X177549444Y-51144835D01*
X177602127Y-51150500D01*
X179397872Y-51150499D01*
X179457483Y-51144091D01*
X179592331Y-51093796D01*
X179707546Y-51007546D01*
X179793796Y-50892331D01*
X179844091Y-50757483D01*
X179850500Y-50697873D01*
X179850499Y-48902128D01*
X179844091Y-48842517D01*
X179815742Y-48766510D01*
X179793797Y-48707671D01*
X179793793Y-48707664D01*
X179707547Y-48592455D01*
X179707544Y-48592452D01*
X179592335Y-48506206D01*
X179592328Y-48506202D01*
X179460917Y-48457189D01*
X179404983Y-48415318D01*
X179380566Y-48349853D01*
X179395418Y-48281580D01*
X179416563Y-48253332D01*
X179530104Y-48139792D01*
X179655051Y-47967816D01*
X179751557Y-47778412D01*
X179817246Y-47576243D01*
X179850500Y-47366287D01*
X179850500Y-47153713D01*
X179817246Y-46943757D01*
X179751557Y-46741588D01*
X179655051Y-46552184D01*
X179655049Y-46552181D01*
X179655048Y-46552179D01*
X179530109Y-46380213D01*
X179379786Y-46229890D01*
X179207820Y-46104951D01*
X179207115Y-46104591D01*
X179199054Y-46100485D01*
X179148259Y-46052512D01*
X179131463Y-45984692D01*
X179153999Y-45918556D01*
X179199054Y-45879515D01*
X179207816Y-45875051D01*
X179270688Y-45829372D01*
X179379786Y-45750109D01*
X179379788Y-45750106D01*
X179379792Y-45750104D01*
X179530104Y-45599792D01*
X179530106Y-45599788D01*
X179530109Y-45599786D01*
X179655048Y-45427820D01*
X179655047Y-45427820D01*
X179655051Y-45427816D01*
X179751557Y-45238412D01*
X179817246Y-45036243D01*
X179850500Y-44826287D01*
X179850500Y-44613713D01*
X179817246Y-44403757D01*
X179751557Y-44201588D01*
X179655051Y-44012184D01*
X179655049Y-44012181D01*
X179655048Y-44012179D01*
X179530109Y-43840213D01*
X179379786Y-43689890D01*
X179207820Y-43564951D01*
X179207115Y-43564591D01*
X179199054Y-43560485D01*
X179148259Y-43512512D01*
X179131463Y-43444692D01*
X179153999Y-43378556D01*
X179199054Y-43339515D01*
X179207816Y-43335051D01*
X179258133Y-43298494D01*
X179379786Y-43210109D01*
X179379788Y-43210106D01*
X179379792Y-43210104D01*
X179530104Y-43059792D01*
X179530106Y-43059788D01*
X179530109Y-43059786D01*
X179655048Y-42887820D01*
X179655047Y-42887820D01*
X179655051Y-42887816D01*
X179751557Y-42698412D01*
X179817246Y-42496243D01*
X179850500Y-42286287D01*
X179850500Y-42073713D01*
X179817246Y-41863757D01*
X179751557Y-41661588D01*
X179655051Y-41472184D01*
X179655049Y-41472181D01*
X179655048Y-41472179D01*
X179530109Y-41300213D01*
X179379786Y-41149890D01*
X179207817Y-41024949D01*
X179198504Y-41020204D01*
X179147707Y-40972230D01*
X179130912Y-40904409D01*
X179153449Y-40838274D01*
X179198507Y-40799232D01*
X179207558Y-40794620D01*
X179379459Y-40669727D01*
X179379464Y-40669723D01*
X179529723Y-40519464D01*
X179529727Y-40519459D01*
X179654620Y-40347557D01*
X179751095Y-40158217D01*
X179816757Y-39956129D01*
X179816757Y-39956126D01*
X179827231Y-39890000D01*
X178933012Y-39890000D01*
X178965925Y-39832993D01*
X179000000Y-39705826D01*
X179000000Y-39574174D01*
X178965925Y-39447007D01*
X178933012Y-39390000D01*
X179827231Y-39390000D01*
X179816757Y-39323873D01*
X179816757Y-39323870D01*
X179751095Y-39121782D01*
X179654620Y-38932442D01*
X179529727Y-38760540D01*
X179529723Y-38760535D01*
X179379464Y-38610276D01*
X179379459Y-38610272D01*
X179207555Y-38485377D01*
X179198500Y-38480763D01*
X179147706Y-38432788D01*
X179130912Y-38364966D01*
X179153451Y-38298832D01*
X179198508Y-38259793D01*
X179207816Y-38255051D01*
X179287007Y-38197515D01*
X179379786Y-38130109D01*
X179379788Y-38130106D01*
X179379792Y-38130104D01*
X179530104Y-37979792D01*
X179530106Y-37979788D01*
X179530109Y-37979786D01*
X179655048Y-37807820D01*
X179655047Y-37807820D01*
X179655051Y-37807816D01*
X179751557Y-37618412D01*
X179817246Y-37416243D01*
X179850500Y-37206287D01*
X179850500Y-36993713D01*
X179817246Y-36783757D01*
X179751557Y-36581588D01*
X179655051Y-36392184D01*
X179655049Y-36392181D01*
X179655048Y-36392179D01*
X179530109Y-36220213D01*
X179379786Y-36069890D01*
X179207820Y-35944951D01*
X179207115Y-35944591D01*
X179199054Y-35940485D01*
X179148259Y-35892512D01*
X179131463Y-35824692D01*
X179153999Y-35758556D01*
X179199054Y-35719515D01*
X179207816Y-35715051D01*
X179229789Y-35699086D01*
X179379786Y-35590109D01*
X179379788Y-35590106D01*
X179379792Y-35590104D01*
X179530104Y-35439792D01*
X179530106Y-35439788D01*
X179530109Y-35439786D01*
X179655048Y-35267820D01*
X179655047Y-35267820D01*
X179655051Y-35267816D01*
X179751557Y-35078412D01*
X179817246Y-34876243D01*
X179850500Y-34666287D01*
X179850500Y-34453713D01*
X179817246Y-34243757D01*
X179751557Y-34041588D01*
X179655051Y-33852184D01*
X179655049Y-33852181D01*
X179655048Y-33852179D01*
X179530109Y-33680213D01*
X179379786Y-33529890D01*
X179207820Y-33404951D01*
X179018414Y-33308444D01*
X179018413Y-33308443D01*
X179018412Y-33308443D01*
X178816243Y-33242754D01*
X178816241Y-33242753D01*
X178816240Y-33242753D01*
X178654957Y-33217208D01*
X178606287Y-33209500D01*
X178393713Y-33209500D01*
X178345042Y-33217208D01*
X178183760Y-33242753D01*
X177981585Y-33308444D01*
X177792179Y-33404951D01*
X177620213Y-33529890D01*
X177469890Y-33680213D01*
X177344951Y-33852179D01*
X177248444Y-34041585D01*
X177182753Y-34243760D01*
X177149500Y-34453713D01*
X141314627Y-34453713D01*
X141320409Y-34424649D01*
X141330500Y-34373920D01*
X141330500Y-34226079D01*
X141301659Y-34081092D01*
X141301658Y-34081091D01*
X141301658Y-34081087D01*
X141285296Y-34041585D01*
X141245087Y-33944511D01*
X141245080Y-33944498D01*
X141162951Y-33821584D01*
X141162948Y-33821580D01*
X141058419Y-33717051D01*
X141058415Y-33717048D01*
X140935501Y-33634919D01*
X140935488Y-33634912D01*
X140798917Y-33578343D01*
X140798907Y-33578340D01*
X140653920Y-33549500D01*
X140653918Y-33549500D01*
X140506082Y-33549500D01*
X140506080Y-33549500D01*
X140361092Y-33578340D01*
X140361082Y-33578343D01*
X140224511Y-33634912D01*
X140224498Y-33634919D01*
X140101584Y-33717048D01*
X140101580Y-33717051D01*
X139997051Y-33821580D01*
X139997048Y-33821584D01*
X139914919Y-33944498D01*
X139914912Y-33944511D01*
X139858343Y-34081082D01*
X139858340Y-34081092D01*
X139829500Y-34226079D01*
X139829500Y-34226082D01*
X139829500Y-34373918D01*
X139829500Y-34373920D01*
X139829499Y-34373920D01*
X136930500Y-34373920D01*
X136930500Y-34373918D01*
X136930500Y-34226082D01*
X136930500Y-34226079D01*
X136901659Y-34081092D01*
X136901658Y-34081091D01*
X136901658Y-34081087D01*
X136885296Y-34041585D01*
X136845087Y-33944511D01*
X136845080Y-33944498D01*
X136762951Y-33821584D01*
X136762948Y-33821580D01*
X136658419Y-33717051D01*
X136658415Y-33717048D01*
X136535501Y-33634919D01*
X136535488Y-33634912D01*
X136398917Y-33578343D01*
X136398907Y-33578340D01*
X136253920Y-33549500D01*
X136253918Y-33549500D01*
X136106082Y-33549500D01*
X136106080Y-33549500D01*
X135961092Y-33578340D01*
X135961082Y-33578343D01*
X135824511Y-33634912D01*
X135824498Y-33634919D01*
X135701584Y-33717048D01*
X135701580Y-33717051D01*
X135597051Y-33821580D01*
X135597048Y-33821584D01*
X135514919Y-33944498D01*
X135514912Y-33944511D01*
X135458343Y-34081082D01*
X135458340Y-34081092D01*
X135429500Y-34226079D01*
X135429500Y-34226082D01*
X135429500Y-34373918D01*
X135429500Y-34373920D01*
X135429499Y-34373920D01*
X92600500Y-34373920D01*
X92600500Y-32753751D01*
X92600726Y-32746264D01*
X92618271Y-32456206D01*
X92620076Y-32441341D01*
X92671780Y-32159203D01*
X92675364Y-32144665D01*
X92760696Y-31870822D01*
X92765998Y-31856842D01*
X92883727Y-31595256D01*
X92890678Y-31582011D01*
X93039079Y-31336527D01*
X93047566Y-31324231D01*
X93224480Y-31098417D01*
X93234395Y-31087226D01*
X93437226Y-30884396D01*
X93448417Y-30874481D01*
X93674230Y-30697567D01*
X93686526Y-30689080D01*
X93932016Y-30540676D01*
X93945249Y-30533731D01*
X94206841Y-30415998D01*
X94220821Y-30410696D01*
X94494668Y-30325362D01*
X94509198Y-30321780D01*
X94791344Y-30270075D01*
X94806201Y-30268271D01*
X95096248Y-30250727D01*
X95103735Y-30250501D01*
X95165893Y-30250501D01*
X179034108Y-30250501D01*
X179096249Y-30250501D01*
X179103736Y-30250727D01*
G37*
%TD.AperFunction*%
%TD*%
M02*
